<?xml version="1.0" standalone="no"?><!DOCTYPE svg PUBLIC "-//W3C//DTD SVG 1.1//EN" "http://www.w3.org/Graphics/SVG/1.1/DTD/svg11.dtd"><svg height="1024" node-id="1" sillyvg="true" template-height="1024" template-width="1024" version="1.1" viewBox="0 0 1024 1024" width="1024" xmlns="http://www.w3.org/2000/svg" xmlns:xlink="http://www.w3.org/1999/xlink"><defs node-id="26"></defs><path d="M 0.00 0.00 L 1024.00 0.00 L 1024.00 1024.00 L 0.00 1024.00 Z" fill="#ffffff" fill-rule="nonzero" node-id="28" stroke="none" target-height="1024" target-width="1024" target-x="0" target-y="0"></path><path d="M 433.00 289.00 L 433.00 624.00 L 430.40 624.00 L 419.50 623.70 L 408.70 622.90 L 398.00 621.50 L 387.40 619.60 L 376.90 617.10 L 366.60 614.20 L 356.40 610.80 L 346.50 607.00 L 336.80 602.60 L 327.30 597.90 L 318.20 592.80 L 309.30 587.20 L 300.80 581.20 L 292.60 574.90 L 284.90 568.20 L 277.60 561.30 L 270.60 553.90 L 264.10 546.20 L 258.20 538.30 L 252.80 530.20 L 247.90 521.70 L 243.60 513.00 L 239.80 504.00 L 236.70 494.90 L 234.70 487.50 L 233.10 479.90 L 232.00 472.20 L 231.30 464.40 L 231.00 456.50 L 231.30 448.60 L 232.00 440.80 L 233.10 433.10 L 234.70 425.50 L 236.70 418.10 L 239.80 409.00 L 243.60 400.00 L 247.90 391.30 L 252.80 382.80 L 258.20 374.70 L 264.10 366.80 L 270.60 359.10 L 277.60 351.70 L 284.90 344.80 L 292.60 338.10 L 300.80 331.80 L 309.30 325.80 L 318.20 320.20 L 327.30 315.10 L 336.80 310.40 L 346.50 306.00 L 356.40 302.20 L 366.60 298.80 L 376.90 295.90 L 387.40 293.40 L 398.00 291.50 L 408.70 290.10 L 419.50 289.30 L 433.00 289.00 Z" fill="#c9d0df" fill-rule="nonzero" node-id="30" stroke="none" target-height="335" target-width="202" target-x="231" target-y="289"></path><path d="M 435.00 287.00 L 435.00 626.00 L 430.40 626.00 L 420.80 625.80 L 411.20 625.10 L 401.80 624.10 L 392.30 622.60 L 373.80 618.40 L 355.80 612.70 L 338.30 605.60 L 321.80 597.10 L 306.00 587.40 L 291.40 576.50 L 284.50 570.60 L 277.90 564.40 L 271.70 558.10 L 265.80 551.40 L 260.30 544.50 L 255.10 537.40 L 250.40 530.10 L 246.10 522.60 L 242.20 514.90 L 238.80 507.00 L 235.90 499.00 L 233.50 490.80 L 231.50 482.40 L 230.10 473.90 L 229.30 465.30 L 229.00 456.50 L 229.30 447.70 L 230.10 439.10 L 231.50 430.60 L 233.50 422.20 L 235.90 414.00 L 238.80 406.00 L 242.20 398.10 L 246.10 390.40 L 250.40 382.90 L 255.10 375.60 L 260.30 368.50 L 265.80 361.60 L 271.70 354.90 L 277.90 348.60 L 284.50 342.40 L 291.40 336.50 L 306.00 325.60 L 321.80 315.90 L 338.30 307.40 L 355.80 300.30 L 373.80 294.60 L 392.30 290.40 L 401.80 288.90 L 411.20 287.90 L 420.80 287.20 L 435.00 287.00 Z M 433.00 624.00 L 433.00 289.00 L 430.40 289.00 L 419.50 289.30 L 408.70 290.10 L 398.00 291.50 L 387.40 293.40 L 376.90 295.90 L 366.60 298.80 L 356.40 302.20 L 346.50 306.00 L 336.80 310.40 L 327.30 315.10 L 318.20 320.20 L 309.30 325.80 L 300.80 331.80 L 292.60 338.10 L 284.90 344.80 L 277.60 351.70 L 270.60 359.10 L 264.10 366.80 L 258.20 374.70 L 252.80 382.80 L 247.90 391.30 L 243.60 400.00 L 239.80 409.00 L 236.70 418.10 L 234.70 425.50 L 233.10 433.10 L 232.00 440.80 L 231.30 448.60 L 231.00 456.50 L 231.30 464.40 L 232.00 472.20 L 233.10 479.90 L 234.70 487.50 L 236.70 494.90 L 239.80 504.00 L 243.60 513.00 L 247.90 521.70 L 252.80 530.20 L 258.20 538.30 L 264.10 546.20 L 270.60 553.90 L 277.60 561.30 L 284.90 568.20 L 292.60 574.90 L 300.80 581.20 L 309.30 587.20 L 318.20 592.80 L 327.30 597.90 L 336.80 602.60 L 346.50 607.00 L 356.40 610.80 L 366.60 614.20 L 376.90 617.10 L 387.40 619.60 L 398.00 621.50 L 408.70 622.90 L 419.50 623.70 L 433.00 624.00 Z" fill="#a6acbc" fill-rule="evenodd" node-id="32" stroke="none" target-height="339" target-width="206" target-x="229" target-y="287"></path><path d="M 432.90 523.80 L 419.10 523.00 L 406.00 521.80 L 393.80 520.10 L 382.40 517.90 L 370.80 515.20 L 359.90 512.10 L 349.60 508.60 L 339.80 504.70 L 330.20 500.20 L 320.90 495.30 L 312.00 490.00 L 303.40 484.30 L 294.80 477.30 L 287.40 469.40 L 283.10 463.60 L 279.30 457.50 L 276.10 451.20 L 273.50 444.50 L 271.50 437.80 L 270.20 430.90 L 269.30 420.30 L 270.00 409.70 L 270.90 404.40 L 272.20 399.20 L 273.90 394.00 L 276.00 388.80 L 280.20 380.20 L 284.80 371.90 L 289.80 363.90 L 295.20 356.20 L 301.00 348.80 L 307.20 341.70 L 313.80 335.10 L 320.70 328.70 L 328.00 322.80 L 335.70 317.20 L 343.70 312.20 L 352.10 307.50 L 360.70 303.30 L 369.70 299.70 L 379.00 296.50 L 388.70 293.80 L 398.60 291.80 L 408.70 290.30 L 419.30 289.30 L 432.90 289.00 L 432.90 523.80 Z" fill="#dde3ef" fill-rule="nonzero" node-id="34" stroke="none" target-height="234.79999" target-width="163.6" target-x="269.3" target-y="289"></path><path d="M 618.00 624.00 L 628.70 623.60 L 639.00 622.70 L 648.90 621.40 L 658.50 619.70 L 667.70 617.50 L 677.00 614.80 L 685.90 611.80 L 694.40 608.30 L 702.60 604.50 L 710.40 600.40 L 718.10 595.80 L 725.40 590.80 L 732.40 585.60 L 739.00 580.00 L 745.20 574.20 L 751.20 567.90 L 756.70 561.40 L 761.90 554.70 L 766.70 547.70 L 771.20 540.40 L 775.20 532.90 L 778.90 525.20 L 782.10 517.20 L 784.90 509.10 L 787.40 500.70 L 789.40 492.20 L 790.90 483.60 L 792.10 474.70 L 792.80 465.70 L 793.00 456.50 L 792.80 447.30 L 792.10 438.30 L 790.90 429.40 L 789.40 420.80 L 787.40 412.30 L 784.90 403.90 L 782.10 395.80 L 778.90 387.80 L 775.20 380.10 L 771.20 372.60 L 766.70 365.30 L 761.90 358.30 L 756.70 351.60 L 751.20 345.10 L 745.20 338.80 L 739.00 333.00 L 732.40 327.40 L 725.40 322.20 L 718.10 317.20 L 710.40 312.60 L 702.60 308.50 L 694.40 304.70 L 685.90 301.20 L 677.00 298.20 L 667.70 295.50 L 658.50 293.30 L 648.90 291.60 L 639.00 290.30 L 628.70 289.40 L 618.00 289.00 L 618.00 624.00 Z" fill="#c9d0df" fill-rule="nonzero" node-id="36" stroke="none" target-height="335" target-width="175" target-x="618" target-y="289"></path><path d="M 616.00 626.00 L 616.00 287.00 L 628.80 287.40 L 639.20 288.30 L 649.30 289.60 L 658.90 291.40 L 668.30 293.60 L 677.60 296.30 L 686.60 299.40 L 695.20 302.80 L 703.50 306.70 L 711.40 310.90 L 719.20 315.60 L 726.60 320.60 L 733.60 325.90 L 740.30 331.50 L 746.60 337.40 L 752.60 343.70 L 758.30 350.30 L 763.50 357.10 L 768.40 364.20 L 772.90 371.60 L 777.00 379.20 L 780.70 387.00 L 784.00 395.00 L 786.80 403.30 L 789.30 411.80 L 791.30 420.40 L 792.90 429.10 L 794.10 438.00 L 794.80 447.20 L 795.00 456.50 L 794.80 465.80 L 794.10 475.00 L 792.90 483.90 L 791.30 492.60 L 789.30 501.20 L 786.80 509.70 L 784.00 518.00 L 780.70 526.00 L 777.00 533.80 L 772.90 541.40 L 768.40 548.80 L 763.50 555.90 L 758.30 562.70 L 752.60 569.30 L 746.60 575.60 L 740.30 581.50 L 733.60 587.10 L 726.60 592.40 L 719.20 597.40 L 711.40 602.10 L 703.50 606.30 L 695.20 610.20 L 686.60 613.60 L 677.60 616.70 L 668.30 619.40 L 658.90 621.60 L 649.30 623.40 L 639.20 624.70 L 628.80 625.60 L 616.00 626.00 Z M 618.00 289.00 L 630.60 289.50 L 640.80 290.50 L 650.60 291.80 L 660.00 293.60 L 669.20 295.90 L 678.40 298.60 L 687.10 301.70 L 695.60 305.20 L 703.70 309.00 L 711.40 313.20 L 719.00 317.80 L 726.20 322.70 L 733.10 328.00 L 739.60 333.50 L 745.80 339.40 L 751.70 345.60 L 757.20 352.10 L 762.30 358.80 L 767.00 365.80 L 771.40 373.10 L 775.40 380.50 L 779.00 388.20 L 782.20 396.10 L 785.00 404.20 L 787.50 412.60 L 789.40 421.00 L 791.00 429.60 L 792.10 438.40 L 792.80 447.30 L 793.00 456.50 L 792.80 465.70 L 792.10 474.60 L 791.00 483.40 L 789.40 492.00 L 787.50 500.40 L 785.00 508.80 L 782.20 516.90 L 779.00 524.80 L 775.40 532.50 L 771.40 539.90 L 767.00 547.20 L 762.30 554.20 L 757.20 560.90 L 751.70 567.40 L 745.80 573.60 L 739.60 579.50 L 733.10 585.00 L 726.20 590.30 L 719.00 595.20 L 711.40 599.80 L 703.70 604.00 L 695.60 607.80 L 687.10 611.30 L 678.40 614.40 L 669.20 617.10 L 660.00 619.40 L 650.60 621.20 L 640.80 622.50 L 630.60 623.50 L 618.00 624.00 L 618.00 289.00 Z" fill="#a6acbc" fill-rule="evenodd" node-id="38" stroke="none" target-height="339" target-width="179" target-x="616" target-y="287"></path><path d="M 749.50 363.50 L 752.10 370.10 L 756.20 383.60 L 757.70 390.50 L 759.20 399.80 L 760.10 409.20 L 760.50 418.70 L 760.50 428.10 L 760.00 437.50 L 759.00 446.70 L 757.70 455.80 L 754.20 473.10 L 752.00 481.50 L 747.00 496.60 L 744.20 503.80 L 738.50 515.70 L 735.40 521.20 L 729.70 529.20 L 617.10 343.10 L 617.10 288.70 L 627.30 289.10 L 637.10 289.90 L 646.60 291.10 L 656.00 292.70 L 665.10 294.80 L 673.90 297.20 L 681.90 300.50 L 689.80 304.30 L 697.50 308.40 L 704.90 313.00 L 712.10 318.00 L 718.80 323.40 L 725.20 329.20 L 731.20 335.30 L 736.60 341.80 L 743.70 352.30 L 749.50 363.50 Z" fill="#dde3ef" fill-rule="nonzero" node-id="40" stroke="none" target-height="240.5" target-width="143.40002" target-x="617.1" target-y="288.7"></path><path d="M 530.00 456.50 L 529.00 457.80 L 527.50 458.70 L 510.90 465.20 L 506.80 467.30 L 505.80 468.60 L 506.70 469.70 L 508.20 470.30 L 524.50 473.70 L 528.50 475.00 L 529.30 476.10 L 527.30 496.30 L 523.90 515.30 L 521.30 516.00 L 502.10 517.40 L 499.50 518.20 L 500.20 519.10 L 501.60 519.90 L 518.90 525.70 L 520.30 526.40 L 521.00 527.30 L 518.20 536.80 L 515.20 545.80 L 511.80 554.30 L 508.30 562.30 L 507.50 562.90 L 505.00 563.80 L 482.80 568.80 L 480.20 569.70 L 479.40 570.30 L 479.90 571.10 L 481.30 571.70 L 499.00 575.20 L 500.40 575.70 L 500.80 576.50 L 493.70 587.40 L 490.00 592.30 L 489.00 592.90 L 486.60 593.50 L 480.00 594.30 L 465.70 595.90 L 462.30 596.90 L 462.50 597.60 L 463.60 598.20 L 479.20 603.20 L 479.40 603.80 L 477.30 605.40 L 471.80 607.70 L 462.80 610.00 L 457.70 611.90 L 456.90 612.60 L 456.60 613.60 L 456.30 618.30 L 456.00 619.20 L 455.20 619.70 L 451.60 619.90 L 440.00 618.60 L 436.40 618.60 L 435.30 619.00 L 434.60 619.90 L 435.30 622.60 L 435.30 623.30 L 434.90 623.80 L 433.40 624.00 L 428.10 623.70 L 422.90 623.00 L 417.70 621.80 L 412.60 620.10 L 407.70 618.00 L 402.80 615.40 L 398.00 612.40 L 393.30 608.90 L 393.00 608.20 L 393.30 607.30 L 396.70 602.80 L 397.00 601.80 L 396.70 601.10 L 383.30 589.30 L 367.40 574.00 L 364.50 570.70 L 361.50 566.80 L 358.80 562.40 L 356.00 556.50 L 355.30 555.90 L 353.80 555.50 L 346.10 555.10 L 344.60 554.70 L 344.00 554.00 L 344.10 553.30 L 344.90 552.00 L 350.30 546.40 L 351.10 545.10 L 351.20 544.40 L 347.70 533.70 L 344.60 522.40 L 342.10 510.80 L 340.00 498.60 L 339.50 498.00 L 337.90 497.20 L 323.10 493.70 L 321.50 493.00 L 321.00 492.30 L 321.30 491.70 L 322.70 490.90 L 336.50 485.90 L 337.90 485.00 L 338.20 484.40 L 338.60 479.50 L 339.30 476.40 L 345.80 457.30 L 346.60 454.10 L 347.30 449.00 L 347.10 446.10 L 345.80 441.30 L 341.00 432.30 L 339.70 429.20 L 338.80 424.70 L 338.90 421.90 L 339.40 421.20 L 340.50 420.60 L 349.70 419.70 L 352.30 418.90 L 352.80 418.20 L 358.00 385.60 L 358.30 380.10 L 358.10 376.50 L 357.50 373.00 L 356.50 369.60 L 355.10 366.40 L 353.00 363.20 L 350.30 359.80 L 348.10 358.00 L 345.40 356.50 L 335.50 352.00 L 334.60 351.30 L 334.30 350.60 L 334.40 349.80 L 336.90 348.40 L 361.80 340.80 L 364.40 339.40 L 368.60 332.30 L 373.00 325.80 L 377.60 319.90 L 382.30 314.40 L 382.50 313.80 L 381.20 312.70 L 374.70 310.50 L 374.20 310.00 L 374.50 309.40 L 376.90 308.50 L 392.60 304.50 L 402.80 297.60 L 407.70 295.00 L 412.60 292.90 L 417.70 291.20 L 422.90 290.00 L 428.10 289.30 L 433.40 289.00 L 434.10 289.20 L 435.10 290.70 L 436.40 298.30 L 436.90 299.30 L 438.00 300.30 L 440.00 298.80 L 445.70 292.20 L 447.70 290.80 L 448.80 292.50 L 453.70 304.70 L 454.80 306.50 L 458.30 307.40 L 461.50 307.80 L 470.40 307.90 L 476.00 308.70 L 480.60 310.90 L 484.60 314.40 L 483.70 316.20 L 474.50 327.60 L 473.60 329.40 L 476.20 329.50 L 488.00 327.60 L 488.60 327.80 L 491.70 330.30 L 498.00 333.40 L 499.40 334.60 L 500.80 336.50 L 500.70 337.00 L 499.40 338.30 L 479.60 351.80 L 478.30 353.10 L 478.20 353.60 L 478.90 354.00 L 480.90 354.10 L 498.10 351.80 L 500.10 351.90 L 500.80 352.30 L 517.90 383.10 L 522.60 394.50 L 524.10 399.30 L 525.20 404.40 L 525.10 404.90 L 523.20 406.30 L 506.00 413.40 L 504.60 414.20 L 503.90 415.20 L 506.40 415.80 L 524.70 416.00 L 527.20 416.50 L 529.30 436.00 L 530.00 456.50 Z" fill="#e6eaf3" fill-rule="nonzero" node-id="42" stroke="none" target-height="335" target-width="209" target-x="321" target-y="289"></path><path d="M 375.80 308.80 L 392.40 304.50 L 402.80 297.60 L 407.70 295.00 L 412.60 292.90 L 417.70 291.20 L 422.90 290.00 L 428.10 289.30 L 433.40 289.00 L 434.70 289.70 L 435.10 290.70 L 436.50 298.30 L 436.90 299.30 L 438.00 300.30 L 440.00 298.90 L 445.70 292.20 L 447.70 290.80 L 448.50 292.10 L 453.90 305.20 L 454.80 306.50 L 461.20 307.80 L 470.00 307.90 L 475.70 308.60 L 478.60 309.70 L 482.40 312.30 L 484.60 314.40 L 484.60 314.80 L 482.00 318.50 L 474.40 327.60 L 473.60 329.40 L 475.60 329.50 L 484.50 327.90 L 488.20 327.60 L 491.40 330.20 L 497.80 333.20 L 499.30 334.50 L 500.80 336.50 L 500.70 337.00 L 499.40 338.20 L 483.60 348.90 L 479.30 352.00 L 478.20 353.60 L 480.00 354.10 L 484.10 353.70 L 494.60 352.10 L 498.80 351.80 L 500.30 352.00 L 500.80 352.30 L 504.80 359.80 L 515.60 378.70 L 518.60 384.70 L 522.90 395.20 L 525.20 404.40 L 525.00 405.00 L 523.80 405.90 L 519.90 407.80 L 509.40 411.80 L 505.40 413.70 L 504.10 414.70 L 503.90 415.20 L 505.90 415.70 L 525.40 416.00 L 527.20 416.50 L 529.30 436.00 L 530.00 456.50 L 529.60 457.30 L 526.30 459.30 L 509.40 465.80 L 506.10 467.80 L 505.80 468.60 L 506.10 469.30 L 509.30 470.60 L 525.90 474.10 L 529.00 475.40 L 529.30 476.10 L 527.30 496.30 L 523.90 515.30 L 522.00 515.90 L 501.40 517.50 L 499.50 518.20 L 499.70 518.70 L 501.10 519.60 L 505.10 521.20 L 515.60 524.40 L 519.60 526.00 L 520.80 526.80 L 521.00 527.30 L 518.20 536.80 L 515.20 545.80 L 511.80 554.30 L 508.30 562.30 L 505.80 563.60 L 486.30 567.90 L 480.90 569.40 L 479.40 570.30 L 479.80 571.00 L 480.90 571.50 L 485.00 572.50 L 495.70 574.40 L 499.70 575.40 L 500.80 576.20 L 497.30 582.20 L 490.00 592.30 L 487.30 593.30 L 469.00 595.40 L 462.80 596.60 L 462.20 597.20 L 463.70 598.20 L 477.90 602.50 L 479.40 603.40 L 479.40 603.80 L 475.90 606.20 L 473.70 607.10 L 461.80 610.30 L 457.70 611.90 L 456.90 612.60 L 456.60 613.60 L 456.30 618.30 L 456.00 619.10 L 455.20 619.70 L 452.90 619.90 L 439.70 618.60 L 436.40 618.60 L 435.30 619.00 L 434.60 620.00 L 435.30 622.70 L 435.30 623.30 L 434.90 623.80 L 433.40 624.00 L 428.10 623.70 L 422.90 623.00 L 417.70 621.80 L 412.60 620.10 L 407.70 618.00 L 402.80 615.40 L 398.00 612.40 L 393.30 608.90 L 393.00 608.20 L 393.30 607.30 L 396.70 602.90 L 397.00 601.80 L 396.70 601.10 L 383.40 589.50 L 366.80 573.30 L 361.20 566.30 L 358.60 562.10 L 356.00 556.50 L 355.30 555.90 L 353.80 555.50 L 346.10 555.10 L 344.70 554.70 L 344.00 554.00 L 344.10 553.30 L 344.90 552.00 L 350.30 546.40 L 351.10 545.10 L 351.20 544.40 L 347.70 533.70 L 344.60 522.40 L 342.10 510.80 L 340.00 498.60 L 339.60 498.10 L 338.50 497.40 L 322.50 493.50 L 321.40 492.90 L 321.00 492.30 L 322.20 491.10 L 325.40 489.80 L 337.00 485.60 L 338.00 484.90 L 338.20 484.40 L 338.20 482.00 L 339.40 476.00 L 345.90 456.80 L 347.00 452.50 L 347.30 449.00 L 347.10 446.20 L 345.90 441.60 L 339.80 429.40 L 338.80 424.70 L 338.90 421.90 L 339.30 421.20 L 341.20 420.40 L 350.50 419.60 L 352.40 418.80 L 352.80 418.20 L 357.70 388.10 L 358.20 382.90 L 358.20 378.00 L 357.20 371.70 L 354.70 365.80 L 352.80 362.80 L 350.30 359.80 L 348.20 358.10 L 345.70 356.60 L 335.60 352.10 L 334.60 351.30 L 334.30 350.60 L 334.40 349.80 L 337.00 348.30 L 361.90 340.80 L 364.40 339.40 L 368.60 332.30 L 373.00 325.80 L 382.50 313.90 L 381.60 313.00 L 375.70 311.00 L 374.40 310.30 L 374.20 309.90 L 374.50 309.40 L 375.80 308.80 Z M 468.00 597.60 L 477.90 600.40 L 480.20 601.50 L 481.30 602.70 L 481.50 603.30 L 481.20 604.80 L 478.30 607.10 L 475.40 608.60 L 463.30 611.90 L 458.60 613.70 L 458.50 617.30 L 458.00 619.50 L 456.90 621.00 L 454.90 621.90 L 451.40 621.90 L 436.90 620.50 L 437.30 622.90 L 437.20 624.00 L 436.50 625.00 L 435.50 625.70 L 433.40 626.00 L 427.90 625.70 L 422.50 625.00 L 417.10 623.70 L 411.90 622.00 L 406.80 619.80 L 401.80 617.10 L 396.90 614.00 L 392.10 610.50 L 391.20 609.40 L 391.00 608.20 L 391.50 606.30 L 394.80 602.10 L 381.40 590.30 L 365.50 574.90 L 359.70 567.70 L 357.00 563.30 L 354.30 557.60 L 345.80 557.10 L 343.90 556.50 L 342.50 555.40 L 342.00 553.90 L 342.40 552.30 L 343.40 550.80 L 349.20 544.50 L 345.70 534.00 L 342.70 522.80 L 340.20 511.40 L 338.10 499.50 L 323.50 495.90 L 321.00 495.00 L 319.90 494.20 L 319.00 492.60 L 319.10 491.40 L 320.60 489.80 L 322.80 488.60 L 336.20 483.80 L 336.40 480.00 L 337.30 475.90 L 343.90 456.70 L 345.00 452.30 L 345.30 449.00 L 345.20 446.50 L 344.00 442.20 L 338.70 432.10 L 337.80 429.90 L 336.80 424.70 L 337.00 421.70 L 337.50 420.20 L 339.70 418.70 L 350.90 417.50 L 356.10 384.40 L 356.30 380.10 L 355.60 373.50 L 354.60 370.30 L 353.30 367.30 L 351.40 364.30 L 348.80 361.20 L 347.00 359.70 L 344.50 358.30 L 336.50 354.80 L 333.50 353.00 L 332.30 351.00 L 332.60 348.90 L 333.80 347.70 L 338.80 345.60 L 358.70 339.80 L 362.80 338.20 L 370.90 325.30 L 379.70 314.30 L 375.80 313.10 L 373.40 312.00 L 372.50 311.10 L 372.30 310.20 L 372.30 309.20 L 373.20 307.90 L 375.00 307.00 L 377.30 306.30 L 392.10 302.50 L 397.00 298.90 L 401.90 295.80 L 406.80 293.20 L 411.90 291.00 L 417.20 289.30 L 422.50 288.00 L 427.90 287.30 L 433.40 287.00 L 434.90 287.30 L 435.90 288.10 L 437.00 290.10 L 438.30 297.60 L 445.70 289.50 L 447.20 288.80 L 448.20 288.90 L 449.10 289.30 L 450.00 290.60 L 455.90 304.80 L 461.50 305.80 L 470.50 305.90 L 476.20 306.60 L 480.70 308.50 L 483.30 310.40 L 486.10 313.10 L 486.60 314.50 L 486.10 316.30 L 477.20 327.30 L 485.70 325.70 L 487.80 325.50 L 489.40 325.90 L 492.50 328.50 L 499.20 331.80 L 500.80 333.20 L 502.50 335.50 L 502.80 337.10 L 501.50 339.10 L 498.70 341.30 L 482.80 351.90 L 496.80 349.90 L 499.80 349.80 L 501.10 350.10 L 502.60 351.50 L 519.70 382.20 L 524.50 393.80 L 527.20 404.00 L 527.10 405.30 L 525.60 407.10 L 522.90 408.70 L 509.60 413.90 L 526.50 414.10 L 528.40 414.80 L 529.20 416.20 L 531.30 435.80 L 531.80 446.00 L 532.00 456.50 L 531.80 457.60 L 530.10 459.50 L 527.10 461.20 L 508.80 468.40 L 528.00 472.60 L 530.60 474.20 L 531.10 475.00 L 531.30 476.20 L 529.20 496.60 L 527.70 506.30 L 525.50 516.50 L 524.40 517.40 L 520.20 518.10 L 505.30 519.10 L 518.50 523.30 L 521.30 524.60 L 522.40 525.60 L 522.90 526.50 L 522.90 527.90 L 520.10 537.40 L 517.00 546.50 L 513.70 555.10 L 510.10 563.20 L 509.40 564.00 L 507.50 565.10 L 504.00 566.20 L 484.50 570.40 L 498.40 572.90 L 501.20 573.90 L 502.70 575.50 L 502.90 576.20 L 502.50 577.50 L 499.00 583.20 L 491.50 593.60 L 490.20 594.50 L 485.40 595.70 L 468.00 597.60 Z M 438.70 298.40 L 438.70 298.40 Z M 380.90 314.80 L 380.90 314.80 Z M 362.90 338.10 L 362.90 338.10 Z M 349.30 544.20 L 349.30 544.30 Z M 436.40 620.70 L 436.40 620.70 Z" fill="#a6acbc" fill-rule="evenodd" node-id="44" stroke="none" target-height="339" target-width="213" target-x="319" target-y="287"></path><path d="M 375.50 581.50 L 366.80 573.10 L 364.00 569.90 L 361.20 566.10 L 358.60 561.90 L 356.00 556.30 L 355.30 555.70 L 353.80 555.30 L 346.10 554.90 L 344.70 554.50 L 344.00 553.80 L 344.10 553.10 L 344.90 551.80 L 350.30 546.20 L 351.10 544.90 L 351.20 544.20 L 347.70 533.50 L 344.60 522.20 L 342.10 510.50 L 340.00 498.40 L 338.50 497.20 L 322.50 493.30 L 321.40 492.70 L 321.00 492.10 L 321.20 491.60 L 322.20 490.90 L 325.40 489.60 L 337.00 485.40 L 338.00 484.70 L 338.20 484.20 L 338.20 481.70 L 339.40 475.80 L 345.90 456.60 L 347.00 452.30 L 347.30 448.80 L 347.10 446.00 L 345.90 441.30 L 339.80 429.20 L 338.80 424.50 L 338.90 421.70 L 339.30 421.00 L 341.20 420.20 L 350.50 419.40 L 352.40 418.60 L 352.80 418.00 L 357.70 387.90 L 358.20 382.70 L 358.20 377.80 L 357.90 374.60 L 356.10 368.50 L 354.70 365.60 L 352.80 362.60 L 349.00 358.40 L 343.90 355.50 L 349.50 352.50 L 355.20 349.80 L 361.00 347.50 L 367.10 345.50 L 373.20 344.00 L 379.50 342.90 L 385.90 342.20 L 401.70 342.00 L 409.90 342.50 L 411.20 342.90 L 411.60 343.40 L 410.80 344.90 L 396.40 356.80 L 390.60 362.40 L 383.00 371.40 L 378.90 377.10 L 375.20 382.90 L 371.60 389.70 L 368.00 397.40 L 365.80 403.20 L 361.80 416.70 L 358.80 432.00 L 357.90 440.20 L 357.20 449.20 L 357.00 459.00 L 357.70 476.00 L 359.50 490.70 L 361.40 500.20 L 363.70 508.80 L 366.20 516.60 L 369.20 524.20 L 372.30 531.00 L 375.50 537.10 L 382.60 548.30 L 391.40 559.40 L 396.30 564.60 L 408.40 576.10 L 410.40 578.20 L 411.40 579.60 L 411.60 580.60 L 411.20 581.30 L 410.40 581.80 L 408.80 582.30 L 400.70 582.90 L 386.70 582.80 L 375.50 581.50 Z" fill="#c9d0df" fill-rule="nonzero" node-id="46" stroke="none" target-height="240.90002" target-width="90.600006" target-x="321" target-y="342"></path><path d="M 743.90 456.50 L 743.10 475.30 L 740.80 493.30 L 737.10 510.90 L 731.80 528.70 L 732.40 539.10 L 732.00 542.30 L 731.10 543.80 L 730.00 545.00 L 724.20 548.20 L 723.00 549.20 L 712.50 566.70 L 707.40 574.10 L 701.80 581.20 L 695.90 587.70 L 689.80 593.70 L 689.10 594.70 L 689.10 595.90 L 690.40 599.60 L 690.50 601.80 L 689.80 602.80 L 686.50 604.00 L 674.40 606.20 L 660.00 614.10 L 653.20 617.10 L 646.30 619.50 L 639.20 621.50 L 631.90 622.90 L 624.50 623.70 L 617.00 624.00 L 614.90 623.80 L 607.80 621.10 L 604.10 621.10 L 599.90 622.50 L 597.40 614.30 L 596.60 612.80 L 595.00 611.20 L 593.60 610.70 L 592.20 610.60 L 590.00 611.10 L 580.20 615.10 L 578.00 615.50 L 576.60 615.40 L 569.30 611.80 L 562.10 607.60 L 555.20 602.90 L 548.60 597.70 L 542.30 591.90 L 536.10 585.70 L 535.30 583.70 L 535.30 582.30 L 536.80 573.00 L 536.90 571.50 L 536.10 569.40 L 534.30 568.20 L 532.80 567.80 L 523.30 566.60 L 521.90 566.20 L 520.10 564.80 L 519.60 563.50 L 519.30 562.00 L 520.20 557.50 L 524.50 548.60 L 526.30 546.00 L 531.20 541.30 L 543.20 533.40 L 544.40 532.40 L 544.50 531.90 L 541.70 532.50 L 511.70 543.90 L 508.90 544.40 L 507.30 540.40 L 506.40 536.30 L 506.00 531.90 L 506.70 525.30 L 507.60 521.80 L 510.00 516.00 L 511.40 513.90 L 517.40 507.10 L 518.30 505.30 L 517.80 505.00 L 515.90 505.30 L 499.00 510.20 L 497.10 510.50 L 496.70 510.20 L 494.20 499.20 L 492.20 487.80 L 492.60 487.20 L 494.60 486.00 L 513.40 477.90 L 515.40 476.70 L 515.80 476.10 L 515.40 475.70 L 513.70 475.60 L 505.80 475.40 L 502.70 475.00 L 500.80 474.50 L 497.50 472.80 L 495.00 470.50 L 493.10 468.10 L 491.70 465.60 L 490.80 463.00 L 490.20 460.00 L 490.00 456.50 L 490.80 454.00 L 491.80 452.80 L 500.00 446.30 L 501.10 445.20 L 502.10 442.80 L 501.80 427.50 L 502.60 417.20 L 502.50 411.70 L 501.40 396.10 L 501.50 391.00 L 502.60 384.20 L 503.70 380.70 L 504.40 379.90 L 507.40 379.00 L 517.90 377.80 L 519.30 377.20 L 520.00 376.50 L 520.10 375.50 L 518.60 372.70 L 512.30 364.70 L 511.80 363.30 L 511.90 362.30 L 519.30 349.40 L 527.60 337.50 L 536.60 326.80 L 537.10 326.80 L 543.50 331.60 L 559.80 345.40 L 562.00 346.50 L 561.00 344.20 L 545.10 321.60 L 544.10 319.30 L 549.10 314.90 L 551.00 314.30 L 554.70 314.80 L 568.20 318.50 L 570.30 318.60 L 571.60 318.20 L 573.20 316.30 L 573.60 314.90 L 573.90 312.70 L 574.00 302.50 L 574.40 300.40 L 574.90 299.20 L 576.60 297.60 L 583.00 295.10 L 589.60 292.90 L 596.20 291.20 L 603.00 290.00 L 609.90 289.30 L 617.00 289.00 L 623.70 289.20 L 630.20 289.90 L 636.70 291.00 L 643.10 292.50 L 649.30 294.50 L 655.40 296.80 L 668.70 303.30 L 693.30 311.00 L 697.30 312.80 L 697.90 313.40 L 697.80 314.30 L 696.90 314.80 L 690.40 316.90 L 689.50 317.50 L 689.20 318.50 L 699.80 329.60 L 704.60 335.30 L 713.30 347.40 L 717.40 354.00 L 720.60 356.20 L 740.70 365.90 L 743.90 368.20 L 743.60 369.00 L 742.60 369.40 L 729.70 370.00 L 727.80 370.20 L 726.40 371.00 L 733.80 390.80 L 736.80 401.00 L 739.30 411.70 L 741.30 422.40 L 742.70 433.50 L 743.60 444.80 L 743.90 456.50 Z" fill="#e6eaf3" fill-rule="nonzero" node-id="48" stroke="none" target-height="335" target-width="253.90002" target-x="490" target-y="289"></path><path d="M 598.70 625.30 L 595.60 615.10 L 595.10 614.10 L 594.10 613.10 L 592.90 612.60 L 590.60 613.00 L 580.70 617.00 L 577.10 617.50 L 575.80 617.20 L 568.30 613.50 L 561.10 609.30 L 554.00 604.50 L 547.30 599.20 L 540.90 593.40 L 534.60 587.00 L 533.90 585.90 L 533.40 584.60 L 533.30 582.20 L 534.90 572.80 L 534.50 570.60 L 532.40 569.70 L 525.30 569.00 L 521.60 568.30 L 519.40 567.00 L 518.40 565.90 L 517.40 563.00 L 517.70 559.10 L 518.40 556.80 L 520.40 552.10 L 522.80 547.60 L 524.60 545.00 L 526.80 542.50 L 532.00 538.20 L 511.10 546.20 L 508.70 546.50 L 507.50 545.90 L 507.10 545.30 L 505.80 542.10 L 504.30 535.40 L 504.20 528.50 L 504.70 524.90 L 505.70 521.20 L 507.00 517.40 L 508.30 515.00 L 509.80 512.70 L 514.00 507.90 L 500.70 511.90 L 497.90 512.40 L 496.60 512.40 L 495.70 512.10 L 494.70 510.70 L 493.00 503.40 L 490.20 488.00 L 490.50 486.60 L 492.10 485.10 L 495.00 483.60 L 509.30 477.50 L 502.30 476.90 L 499.20 476.00 L 496.30 474.30 L 493.50 471.90 L 491.40 469.20 L 489.90 466.50 L 488.80 463.50 L 488.20 460.20 L 488.20 455.00 L 489.50 452.50 L 492.50 449.60 L 498.60 444.90 L 499.80 443.50 L 500.10 442.60 L 499.90 427.50 L 500.50 418.00 L 500.60 413.40 L 499.40 396.20 L 499.50 390.90 L 500.60 383.80 L 501.90 379.90 L 502.70 378.70 L 505.00 377.50 L 518.00 375.60 L 510.40 365.40 L 509.80 362.90 L 510.20 361.40 L 513.80 354.70 L 521.70 342.20 L 530.50 330.70 L 535.20 325.40 L 536.10 324.80 L 537.80 324.90 L 539.10 325.60 L 542.20 327.90 L 555.00 338.90 L 542.80 321.70 L 542.10 319.50 L 542.40 318.30 L 547.80 313.40 L 549.30 312.60 L 550.80 312.30 L 553.90 312.60 L 557.30 313.40 L 567.40 316.30 L 570.50 316.50 L 571.30 315.50 L 571.80 313.50 L 571.90 304.30 L 572.50 299.50 L 573.20 298.10 L 574.30 296.80 L 575.80 295.80 L 582.30 293.20 L 589.00 291.00 L 595.80 289.30 L 602.70 288.00 L 609.80 287.30 L 617.00 287.00 L 623.80 287.20 L 630.50 287.90 L 637.10 289.10 L 643.60 290.60 L 650.00 292.60 L 656.20 295.00 L 670.10 301.70 L 696.00 309.90 L 698.50 311.10 L 699.50 312.10 L 700.00 313.80 L 699.80 314.80 L 698.40 316.30 L 691.80 318.40 L 701.70 328.70 L 706.40 334.40 L 715.00 346.40 L 719.10 352.90 L 722.90 355.20 L 736.10 361.30 L 743.50 365.20 L 745.70 367.20 L 746.00 368.30 L 745.80 369.50 L 745.20 370.30 L 743.20 371.30 L 728.80 372.10 L 732.70 381.50 L 736.00 391.30 L 739.00 401.50 L 741.50 412.10 L 743.40 422.70 L 744.80 433.70 L 745.60 444.90 L 745.90 456.50 L 745.70 466.10 L 744.10 484.70 L 741.10 502.70 L 739.00 511.40 L 733.80 528.80 L 734.40 539.00 L 734.40 541.10 L 733.90 543.10 L 732.70 545.10 L 731.20 546.50 L 724.40 550.60 L 719.10 559.90 L 714.20 567.80 L 709.00 575.30 L 703.30 582.40 L 697.40 589.10 L 691.20 595.20 L 691.10 595.60 L 692.30 599.00 L 692.60 601.50 L 691.80 603.50 L 690.20 604.90 L 686.90 606.00 L 675.00 608.10 L 667.60 612.40 L 660.90 615.90 L 654.00 618.90 L 646.90 621.40 L 639.60 623.40 L 632.20 624.80 L 624.70 625.70 L 617.00 626.00 L 614.40 625.70 L 609.00 623.50 L 605.70 622.90 L 603.70 623.20 L 598.70 625.30 Z M 691.00 317.70 L 691.00 317.70 Z M 690.90 318.90 L 690.90 318.90 Z M 560.60 343.60 L 562.00 346.50 L 560.20 345.70 L 538.90 327.90 L 537.10 326.80 L 536.60 326.80 L 527.60 337.50 L 523.30 343.40 L 515.50 355.70 L 511.90 362.30 L 511.80 363.10 L 512.70 365.30 L 519.10 373.40 L 520.10 375.70 L 520.00 376.50 L 518.60 377.60 L 517.10 378.00 L 506.60 379.10 L 504.20 380.00 L 503.70 380.70 L 502.40 384.80 L 501.70 388.70 L 501.40 396.40 L 502.60 413.40 L 502.50 418.10 L 501.90 425.30 L 502.10 442.80 L 501.10 445.10 L 500.10 446.30 L 493.80 451.10 L 490.90 454.00 L 490.00 456.50 L 490.20 460.00 L 490.80 463.00 L 491.70 465.60 L 493.10 468.10 L 495.00 470.50 L 497.50 472.80 L 499.50 473.90 L 504.30 475.20 L 513.90 475.60 L 515.40 475.80 L 515.80 476.10 L 514.00 477.60 L 498.20 484.30 L 493.90 486.40 L 492.20 487.80 L 494.20 499.20 L 496.70 510.20 L 498.40 510.30 L 502.40 509.30 L 516.30 505.20 L 517.90 505.00 L 518.30 505.30 L 517.50 507.00 L 511.80 513.50 L 510.10 515.80 L 508.90 518.20 L 506.70 525.30 L 506.00 531.90 L 506.40 536.30 L 507.30 540.40 L 508.90 544.40 L 511.70 543.90 L 518.30 541.50 L 540.10 533.00 L 544.50 531.90 L 544.40 532.40 L 543.20 533.40 L 531.60 541.00 L 526.40 545.90 L 524.50 548.60 L 520.20 557.50 L 519.30 562.00 L 519.60 563.50 L 520.10 564.80 L 521.90 566.20 L 523.40 566.70 L 532.90 567.80 L 534.90 568.40 L 536.10 569.40 L 536.90 571.50 L 536.80 572.90 L 535.30 582.20 L 535.30 583.70 L 536.10 585.70 L 542.30 591.90 L 548.60 597.70 L 555.20 602.90 L 562.10 607.60 L 569.30 611.80 L 576.60 615.40 L 577.50 615.50 L 580.30 615.00 L 590.10 611.10 L 592.30 610.60 L 593.60 610.70 L 595.10 611.30 L 596.80 613.00 L 599.90 622.50 L 604.00 621.10 L 605.80 620.90 L 609.00 621.40 L 615.50 623.90 L 624.50 623.70 L 631.90 622.90 L 639.20 621.50 L 646.30 619.50 L 653.20 617.10 L 660.00 614.10 L 666.70 610.70 L 674.40 606.20 L 686.30 604.00 L 689.80 602.80 L 690.50 601.80 L 690.60 600.70 L 689.10 595.90 L 689.10 594.70 L 689.80 593.70 L 695.90 587.70 L 701.80 581.20 L 707.40 574.10 L 712.50 566.70 L 722.90 549.30 L 724.10 548.30 L 729.90 545.00 L 731.10 543.90 L 732.00 542.30 L 732.40 540.90 L 731.80 528.70 L 737.10 510.90 L 739.10 502.20 L 742.20 484.40 L 743.70 466.00 L 743.90 456.50 L 743.60 444.80 L 742.70 433.50 L 741.30 422.40 L 739.30 411.70 L 736.80 401.00 L 733.80 390.80 L 730.30 380.90 L 726.30 371.10 L 727.30 370.40 L 728.70 370.10 L 741.80 369.50 L 743.70 368.90 L 743.90 368.20 L 741.50 366.30 L 719.70 355.70 L 717.40 354.00 L 713.30 347.40 L 704.60 335.30 L 699.80 329.60 L 689.20 318.40 L 689.30 317.70 L 689.90 317.10 L 696.50 314.90 L 697.50 314.50 L 698.00 314.00 L 698.00 313.50 L 697.30 312.80 L 693.80 311.20 L 670.10 303.80 L 655.40 296.80 L 649.30 294.50 L 643.10 292.50 L 636.70 291.00 L 630.20 289.90 L 623.70 289.20 L 617.00 289.00 L 609.90 289.30 L 603.00 290.00 L 596.20 291.20 L 589.60 292.90 L 583.00 295.10 L 576.60 297.60 L 575.40 298.50 L 574.60 299.90 L 573.90 303.40 L 573.80 314.00 L 572.70 317.10 L 571.60 318.20 L 570.50 318.50 L 567.20 318.30 L 555.90 315.10 L 551.80 314.30 L 550.20 314.40 L 549.10 314.90 L 544.10 319.30 L 545.10 321.60 L 548.50 326.60 L 560.60 343.60 Z M 518.30 375.50 L 518.30 375.50 Z" fill="#a6acbc" fill-rule="evenodd" node-id="50" stroke="none" target-height="339" target-width="257.8" target-x="488.2" target-y="287"></path><path d="M 732.00 527.30 L 737.10 510.90 L 739.10 502.20 L 742.20 484.40 L 743.70 466.00 L 743.90 456.50 L 743.70 446.90 L 740.70 441.60 L 737.40 436.60 L 733.80 431.90 L 729.90 427.50 L 725.70 423.40 L 721.10 419.70 L 716.20 416.30 L 711.00 413.20 L 700.20 407.60 L 693.50 404.80 L 691.90 404.50 L 689.90 404.90 L 689.10 405.80 L 688.50 407.30 L 688.10 409.80 L 687.30 427.20 L 685.40 442.90 L 681.90 458.90 L 679.60 467.40 L 676.40 477.00 L 672.20 487.80 L 667.70 498.50 L 662.00 510.30 L 655.00 523.50 L 647.60 536.30 L 640.70 547.50 L 627.40 567.00 L 615.40 582.60 L 606.50 592.70 L 599.00 600.60 L 585.70 612.90 L 590.30 611.10 L 592.30 610.60 L 593.60 610.70 L 595.10 611.30 L 596.80 613.00 L 597.60 614.80 L 599.90 622.50 L 602.70 621.40 L 604.90 621.00 L 606.90 620.90 L 608.60 621.30 L 615.50 623.90 L 624.50 623.70 L 631.90 622.90 L 639.20 621.50 L 646.30 619.50 L 653.20 617.10 L 660.00 614.10 L 666.70 610.70 L 674.40 606.20 L 686.30 604.00 L 689.80 602.80 L 690.50 601.80 L 690.60 600.70 L 689.10 595.90 L 689.10 594.70 L 689.80 593.70 L 695.90 587.70 L 701.80 581.20 L 707.40 574.10 L 712.50 566.70 L 722.90 549.30 L 724.10 548.30 L 729.90 545.00 L 731.10 543.90 L 732.00 542.30 L 732.40 539.00 L 731.70 530.60 L 732.00 527.30 Z" fill="#f1f4fc" fill-rule="evenodd" node-id="52" stroke="none" target-height="219.40002" target-width="158.20001" target-x="585.7" target-y="404.5"></path><path d="M 685.80 623.40 L 694.20 623.70 L 701.50 624.60 L 707.70 625.80 L 713.00 627.40 L 717.30 629.30 L 720.90 631.20 L 723.80 633.40 L 726.20 635.60 L 728.10 638.00 L 729.60 640.80 L 730.50 643.60 L 731.00 646.50 L 730.90 649.70 L 730.20 653.00 L 729.10 656.10 L 727.40 659.30 L 725.10 662.70 L 722.10 666.40 L 718.20 670.20 L 714.50 673.40 L 704.60 680.20 L 698.40 683.80 L 691.20 687.40 L 682.60 691.20 L 672.70 695.00 L 661.20 698.70 L 648.20 702.40 L 635.50 705.40 L 621.30 708.20 L 605.60 710.70 L 588.00 713.00 L 571.00 714.60 L 552.40 715.90 L 532.00 716.70 L 509.70 717.00 L 494.90 716.80 L 466.60 715.40 L 453.00 714.30 L 434.90 712.30 L 417.60 709.80 L 401.40 707.00 L 385.10 703.70 L 370.10 700.10 L 356.10 696.40 L 342.30 692.10 L 329.80 687.90 L 318.70 683.60 L 307.70 678.80 L 298.40 674.30 L 290.50 669.90 L 284.60 666.20 L 275.80 659.50 L 270.40 653.60 L 268.70 651.10 L 267.70 648.70 L 267.10 646.60 L 267.00 644.60 L 267.40 642.70 L 268.20 640.80 L 269.60 639.00 L 271.70 637.20 L 274.60 635.50 L 278.10 633.90 L 282.90 632.50 L 289.00 631.30 L 296.80 630.30 L 312.70 629.60 L 323.00 629.70 L 363.40 631.90 L 385.70 632.60 L 402.80 632.60 L 415.60 632.10 L 424.10 631.30 L 430.10 630.30 L 434.30 629.20 L 437.00 628.00 L 438.70 626.70 L 439.60 625.50 L 439.90 624.30 L 439.70 622.90 L 439.00 621.40 L 437.50 619.50 L 434.90 617.20 L 430.90 614.40 L 425.00 610.90 L 416.70 606.70 L 400.30 599.30 L 395.80 596.90 L 392.00 594.40 L 388.50 591.60 L 385.90 588.90 L 384.00 586.30 L 383.00 584.10 L 382.50 582.00 L 382.60 579.90 L 383.10 577.80 L 384.00 575.90 L 385.50 573.80 L 387.70 571.70 L 390.80 569.40 L 395.10 566.90 L 401.10 564.20 L 408.90 561.40 L 416.90 559.20 L 426.90 556.80 L 439.10 554.50 L 451.40 552.60 L 482.90 549.00 L 499.30 547.80 L 516.00 547.10 L 532.50 547.00 L 548.80 547.50 L 559.50 548.20 L 579.80 550.50 L 589.70 552.20 L 598.90 554.10 L 607.50 556.40 L 616.00 559.20 L 623.50 562.20 L 630.30 565.60 L 635.20 568.50 L 639.50 571.60 L 643.30 574.90 L 646.60 578.30 L 647.70 580.00 L 648.40 581.60 L 648.60 583.10 L 648.40 584.70 L 647.70 586.70 L 646.50 588.90 L 644.70 591.10 L 641.40 594.20 L 625.40 606.20 L 620.50 610.60 L 619.40 612.20 L 618.80 614.70 L 619.80 616.60 L 621.20 617.70 L 623.20 618.70 L 626.50 619.70 L 631.60 620.70 L 639.80 621.80 L 652.40 622.70 L 666.50 623.20 L 685.80 623.40 Z" fill="#e5ecfa" fill-rule="nonzero" node-id="54" stroke="none" target-height="170" target-width="464" target-x="267" target-y="547"></path><path d="M 648.70 704.30 L 635.90 707.30 L 621.70 710.10 L 605.80 712.70 L 588.20 715.00 L 571.20 716.60 L 552.50 717.90 L 532.00 718.70 L 509.70 719.00 L 494.90 718.80 L 480.50 718.30 L 452.90 716.30 L 434.60 714.30 L 417.40 711.80 L 401.00 709.00 L 384.70 705.70 L 369.60 702.10 L 355.60 698.30 L 341.60 694.00 L 329.10 689.70 L 317.90 685.40 L 306.80 680.60 L 297.40 676.00 L 289.40 671.60 L 282.40 667.10 L 276.80 663.00 L 273.40 659.90 L 268.50 654.50 L 266.70 651.60 L 265.60 648.80 L 265.00 646.10 L 265.10 644.00 L 265.50 642.10 L 266.30 640.20 L 267.50 638.40 L 269.30 636.50 L 271.70 634.80 L 274.80 633.20 L 278.70 631.70 L 283.50 630.30 L 289.50 629.20 L 301.50 627.90 L 309.10 627.60 L 320.90 627.70 L 362.30 629.80 L 383.80 630.60 L 400.60 630.70 L 411.70 630.30 L 426.50 628.90 L 434.10 627.10 L 437.10 625.50 L 437.90 624.30 L 437.60 622.90 L 435.40 620.20 L 433.00 618.20 L 424.30 612.90 L 416.10 608.70 L 400.10 601.40 L 392.30 597.10 L 386.10 592.10 L 383.80 589.60 L 381.40 585.50 L 380.70 583.30 L 380.50 581.00 L 380.70 578.80 L 381.40 576.60 L 382.50 574.40 L 384.30 572.20 L 386.90 569.70 L 390.50 567.20 L 395.40 564.50 L 400.50 562.30 L 406.90 560.00 L 414.80 557.70 L 432.20 553.70 L 443.50 551.80 L 467.80 548.50 L 482.80 547.00 L 499.20 545.80 L 515.90 545.10 L 532.60 545.00 L 548.90 545.50 L 559.70 546.20 L 580.10 548.50 L 590.00 550.20 L 599.30 552.20 L 608.10 554.50 L 616.60 557.30 L 624.40 560.40 L 631.30 563.80 L 636.30 566.80 L 640.80 570.00 L 644.70 573.40 L 648.10 577.00 L 650.10 580.30 L 650.50 582.00 L 650.30 585.40 L 648.60 589.30 L 644.90 593.70 L 637.80 599.70 L 627.60 607.00 L 622.20 611.80 L 620.80 614.00 L 620.90 614.90 L 621.70 615.60 L 625.80 617.40 L 630.30 618.50 L 637.50 619.60 L 657.00 620.90 L 692.70 621.60 L 698.90 622.20 L 709.30 624.20 L 713.60 625.50 L 718.20 627.40 L 721.90 629.50 L 725.10 631.80 L 727.70 634.30 L 729.80 636.90 L 731.20 639.50 L 732.20 642.10 L 732.80 644.80 L 733.00 647.60 L 732.80 650.50 L 732.10 653.60 L 730.90 656.90 L 729.10 660.40 L 726.70 664.00 L 723.50 667.80 L 719.60 671.70 L 711.10 678.40 L 699.40 685.50 L 692.10 689.20 L 683.40 693.10 L 673.30 696.90 L 661.80 700.60 L 648.70 704.30 Z M 509.70 717.00 L 532.00 716.70 L 552.40 715.90 L 571.00 714.60 L 588.00 713.00 L 605.60 710.70 L 621.30 708.20 L 635.50 705.40 L 648.20 702.40 L 661.20 698.70 L 672.70 695.00 L 682.60 691.20 L 691.20 687.40 L 698.40 683.80 L 709.90 676.80 L 718.20 670.20 L 722.10 666.40 L 725.10 662.70 L 727.40 659.30 L 729.10 656.10 L 730.20 653.00 L 730.90 649.70 L 731.00 646.50 L 730.50 643.60 L 729.60 640.80 L 728.10 638.00 L 726.20 635.60 L 723.80 633.40 L 720.90 631.20 L 717.30 629.30 L 713.00 627.40 L 707.70 625.80 L 701.50 624.60 L 694.20 623.70 L 655.20 622.90 L 643.30 622.10 L 635.00 621.30 L 626.00 619.60 L 621.00 617.60 L 619.60 616.50 L 619.00 615.40 L 618.80 614.20 L 619.00 612.90 L 619.90 611.40 L 621.80 609.30 L 624.60 606.80 L 639.10 596.10 L 642.60 593.10 L 647.00 588.20 L 648.00 586.20 L 648.50 584.30 L 648.60 582.30 L 647.90 580.40 L 646.60 578.30 L 643.30 574.80 L 639.50 571.60 L 635.20 568.50 L 630.30 565.60 L 623.50 562.20 L 616.00 559.20 L 607.50 556.40 L 598.90 554.10 L 589.70 552.20 L 579.80 550.50 L 559.50 548.20 L 548.80 547.50 L 532.50 547.00 L 516.00 547.10 L 499.30 547.80 L 482.90 549.00 L 465.90 550.80 L 439.10 554.50 L 426.90 556.80 L 416.90 559.20 L 408.90 561.40 L 401.10 564.20 L 395.10 566.90 L 390.80 569.40 L 387.70 571.70 L 385.50 573.80 L 384.00 575.90 L 383.10 577.80 L 382.60 579.90 L 382.50 582.00 L 383.00 584.10 L 384.00 586.30 L 385.90 588.90 L 388.50 591.60 L 392.00 594.40 L 395.80 596.90 L 400.30 599.30 L 416.70 606.70 L 425.00 610.90 L 430.90 614.40 L 434.90 617.20 L 437.50 619.50 L 439.00 621.40 L 439.70 622.90 L 439.90 624.30 L 439.60 625.50 L 438.70 626.70 L 437.00 628.00 L 434.30 629.20 L 430.10 630.30 L 424.10 631.30 L 415.60 632.10 L 402.80 632.60 L 385.70 632.60 L 363.40 631.90 L 323.00 629.70 L 312.70 629.60 L 296.80 630.30 L 289.00 631.30 L 282.90 632.50 L 278.10 633.90 L 274.60 635.50 L 271.70 637.20 L 269.60 639.00 L 268.20 640.80 L 267.40 642.70 L 267.00 644.60 L 267.10 646.60 L 267.70 648.70 L 268.70 651.10 L 270.40 653.60 L 272.80 656.50 L 279.70 662.70 L 290.50 669.90 L 298.40 674.30 L 307.70 678.80 L 318.70 683.60 L 329.80 687.90 L 342.30 692.10 L 356.10 696.40 L 370.10 700.10 L 385.10 703.70 L 401.40 707.00 L 417.60 709.80 L 434.90 712.30 L 453.00 714.30 L 466.60 715.40 L 494.90 716.80 L 509.70 717.00 Z" fill="#a6acbc" fill-rule="evenodd" node-id="56" stroke="none" target-height="174" target-width="468" target-x="265" target-y="545"></path><path d="M 509.70 717.00 L 532.00 716.70 L 552.40 715.90 L 571.00 714.60 L 588.00 713.00 L 605.60 710.70 L 621.30 708.20 L 635.50 705.40 L 648.20 702.40 L 661.20 698.70 L 672.70 695.00 L 682.60 691.20 L 691.20 687.40 L 704.60 680.20 L 709.90 676.80 L 718.20 670.20 L 722.10 666.40 L 725.10 662.70 L 727.40 659.30 L 729.10 656.10 L 730.20 653.00 L 730.90 649.70 L 731.00 646.50 L 730.50 643.60 L 729.60 640.80 L 728.10 638.00 L 726.20 635.60 L 723.80 633.40 L 720.90 631.20 L 717.30 629.30 L 713.00 627.40 L 707.70 625.80 L 701.50 624.60 L 694.20 623.70 L 685.80 623.40 L 656.80 622.90 L 660.30 625.20 L 663.00 627.60 L 665.10 630.30 L 666.60 633.30 L 667.60 636.40 L 668.00 639.80 L 667.80 643.30 L 666.90 647.20 L 665.60 650.90 L 663.60 654.70 L 660.80 658.70 L 657.20 662.90 L 653.30 666.70 L 648.70 670.50 L 643.10 674.50 L 636.50 678.50 L 630.00 681.90 L 622.50 685.30 L 614.00 688.70 L 604.40 691.90 L 594.90 694.60 L 584.50 697.10 L 572.80 699.40 L 559.90 701.40 L 547.40 702.90 L 533.70 704.00 L 518.80 704.70 L 502.50 705.00 L 477.90 704.20 L 466.20 703.20 L 443.40 700.10 L 432.50 698.10 L 412.10 693.40 L 398.90 689.60 L 386.90 685.60 L 375.90 681.40 L 365.20 676.60 L 355.80 671.90 L 347.70 667.30 L 336.60 659.80 L 329.00 653.00 L 325.60 649.20 L 323.30 645.80 L 321.90 642.70 L 321.10 639.90 L 321.00 637.60 L 321.40 635.50 L 322.30 633.50 L 323.70 631.60 L 325.70 629.80 L 313.60 629.60 L 303.50 629.80 L 295.30 630.40 L 288.60 631.30 L 282.70 632.60 L 278.10 634.00 L 274.60 635.40 L 272.00 637.00 L 270.00 638.60 L 268.30 640.60 L 267.40 642.70 L 267.00 644.90 L 267.20 647.30 L 268.20 649.90 L 269.90 652.90 L 272.50 656.20 L 276.20 659.80 L 281.30 663.90 L 292.30 671.00 L 307.60 678.80 L 318.60 683.50 L 331.10 688.30 L 345.40 693.20 L 359.80 697.40 L 375.60 701.50 L 392.90 705.40 L 419.30 710.10 L 448.20 713.80 L 462.90 715.20 L 493.60 716.80 L 509.70 717.00 Z M 439.80 625.10 L 444.10 624.10 L 447.00 622.90 L 448.80 621.70 L 449.80 620.50 L 450.30 619.20 L 450.20 617.70 L 449.50 615.90 L 448.00 613.80 L 445.20 611.00 L 440.70 607.50 L 434.00 603.20 L 420.20 595.30 L 416.50 592.70 L 413.40 590.10 L 409.70 585.70 L 407.80 581.50 L 407.40 579.20 L 407.50 577.00 L 408.10 574.80 L 409.30 572.50 L 410.80 570.50 L 412.90 568.30 L 415.90 566.10 L 419.80 563.80 L 425.00 561.30 L 432.00 558.70 L 441.10 556.00 L 450.20 553.90 L 461.40 551.80 L 475.00 549.80 L 459.10 551.60 L 434.20 555.40 L 422.90 557.70 L 413.70 560.00 L 406.30 562.30 L 399.00 565.10 L 393.60 567.70 L 389.70 570.10 L 386.90 572.40 L 384.90 574.50 L 383.60 576.50 L 382.90 578.40 L 382.50 580.50 L 382.60 582.50 L 383.20 584.60 L 384.20 586.70 L 386.10 589.30 L 388.80 591.90 L 392.30 594.60 L 400.40 599.30 L 417.80 607.30 L 426.60 611.80 L 432.50 615.50 L 436.20 618.30 L 438.40 620.50 L 439.50 622.30 L 439.90 623.80 L 439.80 625.10 Z M 520.90 547.00 L 530.00 547.40 L 547.40 549.00 L 555.90 550.40 L 563.90 552.20 L 571.30 554.30 L 582.00 558.30 L 591.00 563.10 L 595.20 566.00 L 598.90 569.20 L 602.10 572.50 L 604.90 576.10 L 605.90 578.00 L 606.30 579.80 L 606.30 581.60 L 605.90 583.40 L 604.00 587.20 L 601.90 589.90 L 599.30 592.60 L 588.10 602.90 L 585.90 605.40 L 584.60 607.50 L 584.10 608.90 L 584.10 610.20 L 584.60 611.40 L 585.50 612.40 L 587.10 613.40 L 589.70 614.50 L 594.30 615.70 L 601.50 616.70 L 609.90 617.40 L 621.50 617.90 L 619.90 616.70 L 619.10 615.70 L 618.80 614.60 L 619.40 612.20 L 620.40 610.80 L 625.10 606.50 L 639.10 596.10 L 642.60 593.10 L 645.40 590.20 L 647.00 588.20 L 648.00 586.20 L 648.50 584.30 L 648.60 582.30 L 647.90 580.40 L 646.60 578.30 L 643.40 574.90 L 639.80 571.80 L 635.60 568.70 L 630.90 565.90 L 624.40 562.60 L 617.10 559.60 L 609.00 556.90 L 600.80 554.60 L 591.90 552.60 L 582.50 550.90 L 563.00 548.50 L 552.60 547.70 L 536.90 547.10 L 520.90 547.00 Z" fill="#f1f4fc" fill-rule="evenodd" node-id="58" stroke="none" target-height="170" target-width="464" target-x="267" target-y="547"></path><path d="M 599.00 574.50 L 598.70 578.70 L 597.90 582.80 L 596.50 586.80 L 594.60 590.80 L 592.30 594.50 L 589.60 598.00 L 586.30 601.50 L 582.50 604.90 L 574.10 610.80 L 564.00 616.10 L 556.80 618.90 L 549.00 621.40 L 540.50 623.40 L 532.00 624.80 L 523.00 625.70 L 513.50 626.00 L 504.00 625.70 L 495.00 624.80 L 486.50 623.40 L 478.00 621.40 L 470.20 618.90 L 463.00 616.10 L 457.70 613.50 L 452.90 610.80 L 444.50 604.90 L 440.70 601.50 L 437.40 598.00 L 434.70 594.50 L 432.40 590.80 L 430.50 586.80 L 429.10 582.80 L 428.30 578.70 L 428.00 574.50 L 428.30 570.30 L 429.10 566.20 L 430.50 562.20 L 432.40 558.20 L 434.70 554.50 L 437.40 551.00 L 440.70 547.50 L 448.50 541.10 L 457.70 535.50 L 463.00 532.90 L 470.20 530.10 L 478.00 527.60 L 486.50 525.60 L 495.00 524.20 L 504.00 523.30 L 513.50 523.00 L 523.00 523.30 L 532.00 524.20 L 540.50 525.60 L 549.00 527.60 L 556.80 530.10 L 564.00 532.90 L 574.10 538.20 L 582.50 544.10 L 586.30 547.50 L 589.60 551.00 L 592.30 554.50 L 594.60 558.20 L 596.50 562.20 L 597.90 566.20 L 598.70 570.30 L 599.00 574.50 Z" fill="#c9d0df" fill-rule="nonzero" node-id="60" stroke="none" target-height="103" target-width="171" target-x="428" target-y="523"></path><path d="M 572.90 609.20 L 577.90 606.00 L 582.20 602.60 L 585.90 599.10 L 589.30 595.30 L 592.00 591.30 L 594.10 587.40 L 595.70 583.10 L 596.70 578.90 L 597.00 574.50 L 596.70 570.10 L 595.70 565.90 L 594.10 561.60 L 592.00 557.70 L 589.30 553.70 L 585.90 549.90 L 582.20 546.40 L 577.90 543.00 L 572.90 539.80 L 567.80 536.90 L 562.10 534.30 L 556.00 531.90 L 549.70 529.90 L 543.00 528.20 L 535.90 526.80 L 528.70 525.80 L 521.30 525.20 L 513.50 525.00 L 505.70 525.20 L 498.30 525.80 L 491.10 526.80 L 484.00 528.20 L 477.30 529.90 L 471.00 531.90 L 464.90 534.30 L 459.20 536.90 L 454.10 539.80 L 449.10 543.00 L 444.80 546.40 L 441.10 549.90 L 437.70 553.70 L 435.00 557.70 L 432.90 561.60 L 431.30 565.90 L 430.30 570.10 L 430.00 574.50 L 430.30 578.90 L 431.30 583.10 L 432.90 587.40 L 435.00 591.30 L 437.70 595.30 L 441.10 599.10 L 444.80 602.60 L 449.10 606.00 L 454.10 609.20 L 459.20 612.10 L 464.90 614.70 L 471.00 617.10 L 477.30 619.10 L 484.00 620.80 L 491.10 622.20 L 498.30 623.20 L 505.70 623.80 L 513.50 624.00 L 521.30 623.80 L 528.70 623.20 L 535.90 622.20 L 543.00 620.80 L 549.70 619.10 L 556.00 617.10 L 562.10 614.70 L 567.80 612.10 L 572.90 609.20 Z M 513.50 626.00 L 523.00 625.70 L 532.00 624.80 L 540.50 623.40 L 549.00 621.40 L 556.80 618.90 L 564.00 616.10 L 569.30 613.50 L 574.10 610.80 L 582.50 604.90 L 586.30 601.50 L 589.60 598.00 L 592.30 594.50 L 594.60 590.80 L 596.50 586.80 L 597.90 582.80 L 598.70 578.70 L 599.00 574.50 L 598.70 570.30 L 597.90 566.20 L 596.50 562.20 L 594.60 558.20 L 592.30 554.50 L 589.60 551.00 L 586.30 547.50 L 582.50 544.10 L 578.50 541.10 L 569.30 535.50 L 564.00 532.90 L 556.80 530.10 L 549.00 527.60 L 540.50 525.60 L 532.00 524.20 L 523.00 523.30 L 513.50 523.00 L 504.00 523.30 L 495.00 524.20 L 486.50 525.60 L 478.00 527.60 L 470.20 530.10 L 463.00 532.90 L 457.70 535.50 L 452.90 538.20 L 444.50 544.10 L 440.70 547.50 L 437.40 551.00 L 434.70 554.50 L 432.40 558.20 L 430.50 562.20 L 429.10 566.20 L 428.30 570.30 L 428.00 574.50 L 428.30 578.70 L 429.10 582.80 L 430.50 586.80 L 432.40 590.80 L 434.70 594.50 L 437.40 598.00 L 440.70 601.50 L 444.50 604.90 L 448.50 607.90 L 457.70 613.50 L 463.00 616.10 L 470.20 618.90 L 478.00 621.40 L 486.50 623.40 L 495.00 624.80 L 504.00 625.70 L 513.50 626.00 Z" fill="#a6acbc" fill-rule="evenodd" node-id="62" stroke="none" target-height="103" target-width="171" target-x="428" target-y="523"></path><path d="M 581.00 559.00 L 581.90 561.40 L 582.30 563.60 L 582.20 565.80 L 581.60 567.90 L 580.60 569.90 L 577.30 573.90 L 574.80 575.90 L 567.20 580.70 L 562.10 583.00 L 554.20 586.10 L 545.00 589.10 L 535.40 591.60 L 525.00 594.00 L 519.20 594.90 L 514.10 595.10 L 509.60 594.70 L 505.20 593.80 L 501.10 592.50 L 497.20 590.70 L 491.70 587.50 L 468.90 570.10 L 459.10 563.40 L 457.20 561.50 L 456.00 559.60 L 455.50 557.90 L 455.40 556.00 L 455.90 554.10 L 456.80 552.10 L 458.40 550.00 L 460.90 547.60 L 464.20 545.10 L 472.70 540.40 L 482.90 536.40 L 491.20 533.90 L 499.80 532.10 L 505.60 531.20 L 516.50 530.50 L 531.70 530.90 L 544.70 532.40 L 550.50 533.80 L 555.90 535.50 L 559.70 537.20 L 566.80 541.50 L 570.00 544.10 L 572.90 547.10 L 575.70 550.50 L 578.40 554.50 L 581.00 559.00 Z" fill="#dde3ef" fill-rule="nonzero" node-id="64" stroke="none" target-height="64.599976" target-width="126.899994" target-x="455.4" target-y="530.5"></path><path d="M 546.00 547.00 L 545.80 548.40 L 545.10 549.80 L 544.10 551.20 L 540.00 554.00 L 537.00 555.30 L 529.20 557.30 L 520.00 558.00 L 510.80 557.30 L 503.00 555.30 L 500.00 554.00 L 497.50 552.60 L 495.90 551.20 L 494.20 548.40 L 494.00 547.00 L 494.90 544.20 L 497.50 541.40 L 500.00 540.00 L 503.00 538.70 L 510.80 536.70 L 520.00 536.00 L 529.20 536.70 L 537.00 538.70 L 540.00 540.00 L 544.10 542.80 L 545.10 544.20 L 546.00 547.00 Z" fill="#f1f4fc" fill-rule="nonzero" node-id="66" stroke="none" target-height="22" target-width="52" target-x="494" target-y="536"></path><g node-id="77"><path d="M 569.20 561.70 L 569.50 563.70 L 568.90 565.10 L 567.50 567.30 L 565.20 569.80 L 562.40 572.10 L 559.00 574.50 L 555.30 576.60 L 551.90 578.00 L 548.70 579.00 L 546.20 579.30 L 544.60 579.10 L 543.60 578.70 L 542.90 578.00 L 542.70 576.00 L 543.20 574.50 L 544.60 572.40 L 546.90 569.90 L 549.70 567.60 L 553.20 565.20 L 556.90 563.10 L 560.20 561.70 L 563.50 560.70 L 566.00 560.40 L 567.50 560.60 L 569.20 561.70 Z" fill="#f1f4fc" fill-rule="nonzero" group-id="1" node-id="70" stroke="none" target-height="18.899963" target-width="26.799988" target-x="542.7" target-y="560.4"></path></g><path d="M 443.90 912.00 L 442.30 911.80 L 441.10 911.10 L 440.40 910.00 L 440.20 908.30 L 440.20 868.30 L 440.40 866.60 L 441.10 865.50 L 442.30 864.80 L 443.90 864.60 L 446.00 864.60 L 446.00 912.00 L 443.90 912.00 Z M 466.00 864.60 L 467.70 865.20 L 468.30 866.80 L 468.10 868.90 L 467.70 869.60 L 466.00 870.10 L 444.90 870.10 L 444.90 864.60 L 466.00 864.60 Z M 466.00 906.40 L 467.70 907.00 L 468.30 908.60 L 468.10 910.80 L 467.70 911.50 L 466.00 912.00 L 444.90 912.00 L 444.90 906.40 L 466.00 906.40 Z M 464.10 885.60 L 465.70 886.20 L 466.20 887.70 L 466.00 889.70 L 465.70 890.40 L 464.10 890.90 L 444.90 890.90 L 444.90 885.60 L 464.10 885.60 Z M 481.40 909.80 L 480.80 911.50 L 479.20 912.00 L 477.00 911.90 L 476.40 911.50 L 475.80 909.80 L 475.80 880.30 L 476.40 878.70 L 478.00 878.10 L 480.20 878.20 L 480.80 878.70 L 481.40 880.30 L 481.40 909.80 Z M 475.80 898.60 L 476.10 895.20 L 476.70 891.90 L 477.70 888.80 L 479.20 885.90 L 480.90 883.40 L 483.00 881.20 L 485.40 879.50 L 487.90 878.30 L 491.60 877.60 L 492.70 878.60 L 492.70 881.60 L 491.80 882.60 L 487.40 883.80 L 484.60 885.90 L 483.50 887.30 L 481.90 890.70 L 481.40 895.20 L 475.80 898.60 Z M 503.80 909.80 L 503.30 911.50 L 501.60 912.00 L 499.50 911.90 L 498.80 911.50 L 498.30 909.80 L 498.30 880.30 L 498.80 878.70 L 500.50 878.10 L 502.60 878.20 L 503.30 878.70 L 503.80 880.30 L 503.80 909.80 Z M 498.30 898.60 L 498.50 895.20 L 499.10 892.00 L 500.10 888.80 L 501.60 885.90 L 503.40 883.40 L 505.40 881.20 L 507.80 879.50 L 510.40 878.30 L 514.00 877.60 L 515.10 878.60 L 515.20 881.60 L 514.20 882.60 L 509.80 883.80 L 507.00 885.90 L 505.90 887.30 L 504.40 890.70 L 503.80 895.20 L 498.30 898.60 Z M 536.00 907.60 L 540.30 906.90 L 542.20 906.00 L 543.90 904.70 L 546.40 901.50 L 547.80 897.40 L 547.80 892.60 L 547.30 890.50 L 545.30 886.80 L 543.90 885.30 L 542.20 884.10 L 538.20 882.70 L 533.70 882.70 L 529.80 884.10 L 526.70 886.80 L 525.50 888.60 L 524.20 892.60 L 524.20 897.40 L 525.50 901.50 L 526.70 903.30 L 529.80 906.00 L 533.70 907.40 L 536.00 907.60 Z M 536.00 912.70 L 532.80 912.40 L 529.90 911.70 L 527.10 910.30 L 524.60 908.50 L 522.40 906.40 L 520.70 903.90 L 519.40 901.10 L 518.60 898.10 L 518.30 895.00 L 518.60 891.90 L 519.40 889.00 L 520.70 886.20 L 522.50 883.70 L 524.60 881.50 L 527.10 879.70 L 530.00 878.40 L 532.90 877.60 L 536.00 877.40 L 539.10 877.60 L 542.00 878.40 L 544.80 879.70 L 547.40 881.50 L 549.50 883.70 L 551.30 886.20 L 552.60 889.00 L 553.40 891.90 L 553.60 895.00 L 553.40 898.10 L 552.60 901.10 L 551.30 903.90 L 549.50 906.40 L 547.40 908.50 L 544.80 910.30 L 542.00 911.60 L 539.10 912.40 L 536.00 912.70 Z M 566.00 909.80 L 565.40 911.50 L 563.70 912.00 L 561.60 911.90 L 560.90 911.50 L 560.40 909.80 L 560.40 880.30 L 560.90 878.70 L 562.60 878.10 L 564.70 878.20 L 565.40 878.70 L 566.00 880.30 L 566.00 909.80 Z M 560.40 898.60 L 560.60 895.20 L 561.20 892.00 L 562.30 888.80 L 563.70 885.90 L 565.50 883.40 L 567.60 881.20 L 570.00 879.50 L 572.50 878.30 L 576.10 877.60 L 577.30 878.60 L 577.30 881.60 L 576.40 882.60 L 572.00 883.80 L 569.10 885.90 L 568.00 887.30 L 566.50 890.70 L 566.00 895.20 L 560.40 898.60 Z" fill="#aaaaaa" fill-rule="nonzero" node-id="73" stroke="none" target-height="48.100037" target-width="137.09998" target-x="440.2" target-y="864.6"></path><path d="M 421.00 412.00 L 476.00 398.00 L 477.70 406.00 L 478.80 412.40 L 480.20 428.60 L 480.40 438.10 L 480.00 449.00 L 479.40 454.90 L 477.60 465.80 L 475.60 473.60 L 473.50 480.40 L 469.10 491.80 L 464.00 502.00 L 427.00 491.00 L 428.90 483.80 L 430.80 472.20 L 431.40 464.80 L 431.40 454.60 L 431.00 449.00 L 429.80 440.90 L 428.40 433.90 L 425.10 422.30 L 421.00 412.00 Z" fill="#f1f4fc" fill-rule="nonzero" node-id="75" stroke="none" target-height="104" target-width="59.399994" target-x="421" target-y="398"></path></svg>