<?xml version="1.0" standalone="no"?><!DOCTYPE svg PUBLIC "-//W3C//DTD SVG 1.1//EN" "http://www.w3.org/Graphics/SVG/1.1/DTD/svg11.dtd"><svg t="1739513981768" class="icon" viewBox="0 0 1024 1024" version="1.1" xmlns="http://www.w3.org/2000/svg" p-id="4200" xmlns:xlink="http://www.w3.org/1999/xlink" width="200" height="200"><path d="M512.133 117.43c-217.583 0-393.98 176.39-393.98 393.99 0 217.59 176.39 393.98 393.973 393.98 217.596 0 393.973-176.39 393.973-393.98 0-217.6-176.378-393.99-393.966-393.99z m-0.008 735.438c-188.265 0-341.443-153.171-341.443-341.45 0-188.288 153.178-341.458 341.443-341.458 188.278 0 341.444 153.17 341.444 341.459 0 188.279-153.165 341.45-341.444 341.45z m105.51-536.697c26.059 23.818 39.102 52.648 39.102 86.42 0 19.547-4.592 37.575-13.761 54.052-9.176 16.467-27.098 36.534-53.735 60.147-17.885 15.95-29.619 27.627-35.088 35.181-5.47 7.56-9.587 16.16-12.248 25.964-2.649 9.792-4.156 15.448-4.591 37.441h-0.205c-0.827 13.889-12.338 24.893-26.425 24.893-14.62 0-26.476-11.863-26.476-26.49 0-1.039 0.063-2.077 0.192-3.096-0.128-5.028 0.051-30.619 8.984-57.461 3.994-12.004 11.735-23.713 21.68-35.754 7.297-8.757 20.482-21.581 39.506-38.365 19.025-16.778 31.427-30.18 37.115-40.128 5.688-9.962 8.548-20.85 8.548-32.687 0-21.366-8.336-40.183-25.014-56.342-16.679-16.156-37.165-24.283-61.398-24.283-23.405 0-42.95 7.345-58.64 21.991-15.692 14.646-25.958 37.528-30.85 68.698l-0.404-0.052c-1.636 13.938-13.48 24.752-27.856 24.752-15.493 0-28.054-12.565-28.054-28.066 0-1.12 0.07-2.222 0.199-3.308l-0.391-0.049c5.11-41.75 20.224-73.697 45.348-95.906 25.11-22.2 58.371-33.305 99.71-33.305 43.77-0.002 78.705 11.93 104.751 35.753z m-66.073 386.95c0 21.693-17.59 39.302-39.282 39.302-21.7 0-39.294-17.61-39.294-39.301 0-21.7 17.595-39.283 39.294-39.283 21.693 0.001 39.282 17.584 39.282 39.283z" p-id="4201"></path></svg>