<?xml version="1.0" standalone="no"?><!DOCTYPE svg PUBLIC "-//W3C//DTD SVG 1.1//EN" "http://www.w3.org/Graphics/SVG/1.1/DTD/svg11.dtd"><svg height="300" node-id="1" sillyvg="true" template-height="300" template-width="500" version="1.1" viewBox="0 0 500 300" width="500" xmlns="http://www.w3.org/2000/svg" xmlns:xlink="http://www.w3.org/1999/xlink"><defs node-id="115"><linearGradient gradientUnits="objectBoundingBox" id="未命名的渐变_50" node-id="5" spreadMethod="pad" x1="250" x2="250" y1="284.22" y2="191.22"><stop offset="0" stop-color="#fff9ef" stop-opacity="0"></stop><stop offset="0.17" stop-color="#fef8ef" stop-opacity="0.02"></stop><stop offset="0.32" stop-color="#fbf5ee" stop-opacity="0.06"></stop><stop offset="0.46" stop-color="#f5f1ec" stop-opacity="0.14"></stop><stop offset="0.6" stop-color="#edebea" stop-opacity="0.26"></stop><stop offset="0.74" stop-color="#e3e2e7" stop-opacity="0.4"></stop><stop offset="0.87" stop-color="#d6d8e4" stop-opacity="0.58"></stop><stop offset="0.99" stop-color="#c8cde0" stop-opacity="0.79"></stop><stop offset="1" stop-color="#c7cce0" stop-opacity="0.8"></stop></linearGradient><linearGradient gradientUnits="objectBoundingBox" id="未命名的渐变_35" node-id="15" spreadMethod="pad" x1="877.27" x2="933.04" y1="-627.54" y2="-683.32"><stop offset="0" stop-color="#fff9ef" stop-opacity="0"></stop><stop offset="0.17" stop-color="#fef8ef" stop-opacity="0.02"></stop><stop offset="0.32" stop-color="#fbf5ee" stop-opacity="0.06"></stop><stop offset="0.46" stop-color="#f5f1ec" stop-opacity="0.14"></stop><stop offset="0.6" stop-color="#edebea" stop-opacity="0.26"></stop><stop offset="0.74" stop-color="#e3e2e7" stop-opacity="0.4"></stop><stop offset="0.87" stop-color="#d6d8e4" stop-opacity="0.58"></stop><stop offset="0.99" stop-color="#c8cde0" stop-opacity="0.79"></stop><stop offset="1" stop-color="#c7cce0" stop-opacity="0.8"></stop></linearGradient><linearGradient gradientUnits="objectBoundingBox" id="未命名的渐变_35-2" node-id="16" spreadMethod="pad" x1="1155.87" x2="1211.64" y1="-822.7" y2="-878.48"><stop offset="0" stop-color="#fff9ef" stop-opacity="0"></stop><stop offset="0.17" stop-color="#fef8ef" stop-opacity="0.02"></stop><stop offset="0.32" stop-color="#fbf5ee" stop-opacity="0.06"></stop><stop offset="0.46" stop-color="#f5f1ec" stop-opacity="0.14"></stop><stop offset="0.6" stop-color="#edebea" stop-opacity="0.26"></stop><stop offset="0.74" stop-color="#e3e2e7" stop-opacity="0.4"></stop><stop offset="0.87" stop-color="#d6d8e4" stop-opacity="0.58"></stop><stop offset="0.99" stop-color="#c8cde0" stop-opacity="0.79"></stop><stop offset="1" stop-color="#c7cce0" stop-opacity="0.8"></stop></linearGradient><linearGradient gradientUnits="objectBoundingBox" id="未命名的渐变_35-3" node-id="17" spreadMethod="pad" x1="1077.38" x2="1133.15" y1="-926.65" y2="-982.42"><stop offset="0" stop-color="#fff9ef" stop-opacity="0"></stop><stop offset="0.17" stop-color="#fef8ef" stop-opacity="0.02"></stop><stop offset="0.32" stop-color="#fbf5ee" stop-opacity="0.06"></stop><stop offset="0.46" stop-color="#f5f1ec" stop-opacity="0.14"></stop><stop offset="0.6" stop-color="#edebea" stop-opacity="0.26"></stop><stop offset="0.74" stop-color="#e3e2e7" stop-opacity="0.4"></stop><stop offset="0.87" stop-color="#d6d8e4" stop-opacity="0.58"></stop><stop offset="0.99" stop-color="#c8cde0" stop-opacity="0.79"></stop><stop offset="1" stop-color="#c7cce0" stop-opacity="0.8"></stop></linearGradient><linearGradient gradientUnits="objectBoundingBox" id="未命名的渐变_73" node-id="18" spreadMethod="pad" x1="205.79" x2="294.4" y1="65.14" y2="218.61"><stop offset="0" stop-color="#ffffff"></stop><stop offset="0.3" stop-color="#f5f6f9"></stop><stop offset="1" stop-color="#e2e4ed"></stop></linearGradient><linearGradient gradientUnits="objectBoundingBox" id="未命名的渐变_77" node-id="22" spreadMethod="pad" x1="250" x2="250" y1="76.27" y2="207.36"><stop offset="0" stop-color="#ffffff"></stop><stop offset="0.00000011920929" stop-color="#e2e4ed" stop-opacity="0.5"></stop><stop offset="0.02" stop-color="#e0e2ec" stop-opacity="0.54"></stop><stop offset="0.12" stop-color="#d8dbe8" stop-opacity="0.68"></stop><stop offset="0.22" stop-color="#d2d6e5" stop-opacity="0.8"></stop><stop offset="0.34" stop-color="#cdd1e3" stop-opacity="0.89"></stop><stop offset="0.48" stop-color="#cacee1" stop-opacity="0.95"></stop><stop offset="0.65" stop-color="#c8cde0" stop-opacity="0.99"></stop><stop offset="1" stop-color="#c7cce0"></stop></linearGradient><linearGradient gradientUnits="objectBoundingBox" id="未命名的渐变_66" node-id="44" spreadMethod="pad" x1="213.5" x2="286.5" y1="189.5" y2="189.5"><stop offset="0" stop-color="#ffffff"></stop><stop offset="0.00000011920929" stop-color="#ffffff" stop-opacity="0"></stop><stop offset="0.09" stop-color="#ffffff" stop-opacity="0.04"></stop><stop offset="0.23" stop-color="#ffffff" stop-opacity="0.14"></stop><stop offset="0.41" stop-color="#ffffff" stop-opacity="0.31"></stop><stop offset="0.63" stop-color="#ffffff" stop-opacity="0.55"></stop><stop offset="0.88" stop-color="#ffffff" stop-opacity="0.84"></stop><stop offset="1" stop-color="#ffffff"></stop></linearGradient><linearGradient gradientUnits="objectBoundingBox" id="未命名的渐变_71" node-id="68" spreadMethod="pad" x1="218" x2="282" y1="102" y2="102"><stop offset="0" stop-color="#ffffff"></stop><stop offset="0.00000011920929" stop-color="#ffffff" stop-opacity="0"></stop><stop offset="0.04" stop-color="#ffffff" stop-opacity="0.05"></stop><stop offset="0.32" stop-color="#ffffff" stop-opacity="0.38"></stop><stop offset="0.56" stop-color="#ffffff" stop-opacity="0.65"></stop><stop offset="0.76" stop-color="#ffffff" stop-opacity="0.84"></stop><stop offset="0.91" stop-color="#ffffff" stop-opacity="0.96"></stop><stop offset="1" stop-color="#ffffff"></stop></linearGradient><linearGradient gradientUnits="objectBoundingBox" id="未命名的渐变_74" node-id="92" spreadMethod="pad" x1="196" x2="196" y1="131.5" y2="127.5"><stop offset="0" stop-color="#ffffff"></stop><stop offset="0.00000011920929" stop-color="#fff3e0"></stop><stop offset="0.31" stop-color="#ffecce"></stop><stop offset="0.63" stop-color="#ffe8c3"></stop><stop offset="1" stop-color="#ffe7c0"></stop></linearGradient></defs><path d="M 396.00 237.70 L 395.70 240.80 L 394.70 243.90 L 393.10 246.90 L 390.80 250.10 L 388.10 252.80 L 384.80 255.60 L 380.90 258.40 L 376.10 261.20 L 369.60 264.40 L 362.00 267.50 L 353.20 270.60 L 344.30 273.20 L 334.50 275.60 L 323.70 277.90 L 301.20 281.30 L 276.40 283.50 L 250.00 284.20 L 223.60 283.50 L 198.80 281.30 L 176.30 277.90 L 165.50 275.60 L 155.70 273.20 L 146.80 270.60 L 138.00 267.50 L 130.40 264.40 L 123.90 261.20 L 119.10 258.40 L 115.20 255.60 L 111.90 252.80 L 109.20 250.10 L 106.90 246.90 L 105.30 243.90 L 104.30 240.80 L 104.00 237.70 L 104.30 234.60 L 105.30 231.60 L 106.90 228.50 L 109.20 225.40 L 111.90 222.60 L 115.20 219.90 L 119.10 217.10 L 123.90 214.30 L 130.40 211.00 L 138.00 207.90 L 146.80 204.80 L 155.70 202.20 L 165.50 199.80 L 176.30 197.60 L 198.80 194.20 L 223.60 192.00 L 250.00 191.20 L 276.40 192.00 L 301.20 194.20 L 323.70 197.60 L 334.50 199.80 L 344.30 202.20 L 353.20 204.80 L 362.00 207.90 L 369.60 211.00 L 376.10 214.30 L 380.90 217.10 L 384.80 219.90 L 388.10 222.60 L 390.80 225.40 L 393.10 228.50 L 394.70 231.60 L 395.70 234.60 L 396.00 237.70 Z" fill="url(#未命名的渐变_50)" fill-rule="nonzero" node-id="274" stroke="none" target-height="93.000015" target-width="292" target-x="104" target-y="191.2"></path><g node-id="317"><path d="M 108.90 89.90 L 110.50 91.80 L 111.70 93.90 L 112.50 96.20 L 112.90 98.60 L 112.90 100.90 L 112.50 103.30 L 111.70 105.60 L 110.50 107.70 L 108.90 109.70 L 57.90 160.60 L 56.00 162.20 L 53.90 163.40 L 51.60 164.20 L 49.20 164.60 L 46.90 164.60 L 44.50 164.20 L 42.20 163.40 L 40.10 162.20 L 38.10 160.60 L 36.50 158.60 L 35.30 156.50 L 34.50 154.20 L 34.10 151.90 L 34.10 149.50 L 34.50 147.10 L 35.30 144.90 L 36.50 142.70 L 38.10 140.80 L 89.10 89.90 L 91.00 88.20 L 93.10 87.00 L 95.40 86.20 L 97.80 85.80 L 100.10 85.80 L 102.50 86.20 L 104.80 87.00 L 106.90 88.20 L 108.90 89.90 Z" fill="url(#未命名的渐变_35)" fill-rule="nonzero" group-id="1" node-id="278" stroke="none" target-height="78.8" target-width="78.8" target-x="34.1" target-y="85.8"></path></g><g node-id="318"><path d="M 443.90 148.90 L 445.50 150.80 L 446.70 152.90 L 447.50 155.20 L 447.90 157.60 L 447.90 159.90 L 447.50 162.30 L 446.70 164.60 L 445.50 166.70 L 443.90 168.70 L 392.90 219.60 L 391.00 221.20 L 388.90 222.40 L 386.60 223.20 L 384.20 223.60 L 381.90 223.60 L 379.50 223.20 L 377.20 222.40 L 375.10 221.20 L 373.10 219.60 L 371.50 217.60 L 370.30 215.50 L 369.50 213.20 L 369.10 210.90 L 369.10 208.50 L 369.50 206.10 L 370.30 203.90 L 371.50 201.70 L 373.10 199.80 L 424.10 148.90 L 426.00 147.20 L 428.10 146.00 L 430.40 145.20 L 432.80 144.80 L 435.10 144.80 L 437.50 145.20 L 439.80 146.00 L 441.90 147.20 L 443.90 148.90 Z" fill="url(#未命名的渐变_35-2)" fill-rule="nonzero" group-id="2" node-id="283" stroke="none" target-height="78.8" target-width="78.79999" target-x="369.1" target-y="144.8"></path></g><g node-id="319"><path d="M 461.90 19.90 L 463.50 21.80 L 464.70 23.90 L 465.50 26.20 L 465.90 28.60 L 465.90 30.90 L 465.50 33.30 L 464.70 35.60 L 463.50 37.70 L 461.90 39.70 L 410.90 90.60 L 409.00 92.20 L 406.90 93.40 L 404.60 94.20 L 402.20 94.60 L 399.90 94.60 L 397.50 94.20 L 395.20 93.40 L 393.10 92.20 L 391.10 90.60 L 389.50 88.60 L 388.30 86.50 L 387.50 84.20 L 387.10 81.90 L 387.10 79.50 L 387.50 77.10 L 388.30 74.90 L 389.50 72.70 L 391.10 70.80 L 442.10 19.90 L 444.00 18.20 L 446.10 17.00 L 448.40 16.20 L 450.80 15.80 L 453.10 15.80 L 455.50 16.20 L 457.80 17.00 L 459.90 18.20 L 461.90 19.90 Z" fill="url(#未命名的渐变_35-3)" fill-rule="nonzero" group-id="3" node-id="288" stroke="none" target-height="78.799995" target-width="78.79999" target-x="387.1" target-y="15.8"></path></g><path d="M 261.20 136.30 L 276.10 122.70 L 286.20 111.70 L 293.30 102.10 L 297.40 94.70 L 298.90 91.00 L 299.70 87.50 L 300.00 84.20 L 299.70 79.30 L 298.70 74.60 L 297.20 70.00 L 295.10 65.60 L 204.90 65.60 L 202.80 70.00 L 201.20 74.60 L 200.30 79.30 L 200.00 84.20 L 200.30 87.50 L 201.10 91.00 L 202.60 94.70 L 206.70 102.10 L 213.80 111.70 L 223.90 122.70 L 239.90 137.40 L 241.20 140.10 L 241.40 141.70 L 241.20 143.20 L 239.90 145.90 L 223.90 160.70 L 213.80 171.70 L 206.70 181.20 L 202.60 188.60 L 201.10 192.40 L 200.30 195.90 L 200.00 199.20 L 200.30 203.70 L 201.10 208.20 L 202.50 212.60 L 205.10 218.00 L 206.60 219.30 L 209.10 220.60 L 213.30 222.00 L 219.10 223.40 L 232.60 225.00 L 248.10 225.60 L 263.80 225.20 L 277.90 223.70 L 284.20 222.50 L 288.90 221.20 L 291.80 220.00 L 295.10 217.70 L 297.20 213.30 L 298.70 208.80 L 299.70 204.00 L 300.00 199.20 L 299.70 195.90 L 298.90 192.40 L 297.40 188.60 L 293.30 181.20 L 286.20 171.70 L 276.10 160.70 L 260.10 145.90 L 258.80 143.20 L 258.80 140.10 L 260.10 137.40 L 261.20 136.30 Z" fill="url(#未命名的渐变_73)" fill-rule="nonzero" node-id="291" stroke="none" target-height="160" target-width="100" target-x="200" target-y="65.6"></path><path d="M 226.00 206.60 L 220.40 208.10 L 208.50 209.30 L 205.90 210.70 L 205.00 211.70 L 204.40 213.30 L 204.20 215.70 L 204.40 216.90 L 205.10 217.90 L 208.10 220.10 L 214.20 222.30 L 225.20 224.30 L 233.20 225.10 L 250.00 225.60 L 266.80 225.00 L 281.50 223.10 L 289.20 221.10 L 291.80 220.00 L 294.90 217.90 L 295.80 215.80 L 295.50 213.40 L 294.90 211.80 L 294.10 210.70 L 292.90 209.90 L 289.60 209.00 L 279.40 208.00 L 269.70 205.20 L 263.10 203.90 L 252.00 202.40 L 248.30 202.50 Z" fill="#c7cce0" fill-rule="nonzero" node-id="293" stroke="none" target-height="23.200012" target-width="91.59999" target-x="204.2" target-y="202.4"></path><path d="M 252.00 148.50 L 252.30 146.70 L 253.10 144.90 L 255.70 141.40 L 271.80 126.70 L 281.00 117.00 L 287.50 108.60 L 291.20 102.00 L 292.60 98.60 L 293.40 95.50 L 293.70 92.60 L 293.40 88.30 L 292.60 84.20 L 291.20 80.10 L 289.40 76.30 L 210.40 76.30 L 208.50 80.10 L 207.20 84.10 L 206.40 88.30 L 206.10 92.50 L 206.40 95.50 L 207.20 98.60 L 208.50 102.00 L 212.30 108.70 L 214.80 112.20 L 223.30 122.30 L 232.60 131.50 L 244.00 141.80 L 246.00 145.00 L 246.50 146.70 L 249.80 207.40 Z" fill="url(#未命名的渐变_77)" fill-rule="nonzero" node-id="295" stroke="none" target-height="131.09999" target-width="87.600006" target-x="206.1" target-y="76.3"></path><path d="M 289.50 76.50 L 289.20 77.00 L 288.00 77.60 L 285.10 78.50 L 280.20 79.40 L 272.40 80.30 L 263.70 80.80 L 252.50 81.00 L 236.20 80.60 L 222.80 79.50 L 213.80 78.00 L 211.60 77.40 L 210.50 76.50 L 211.60 75.70 L 213.80 75.10 L 222.80 74.00 L 236.20 73.30 L 252.50 73.00 L 263.70 73.10 L 280.20 74.10 L 288.10 75.50 L 289.20 76.00 L 289.50 76.50 Z" fill="#c7cce0" fill-rule="nonzero" node-id="297" stroke="none" target-height="8" target-width="79" target-x="210.5" target-y="73"></path><g node-id="320"><path d="M 286.50 189.50 L 285.70 196.90 L 283.60 203.70 L 281.50 207.90 L 278.90 211.80 L 275.80 215.30 L 272.30 218.40 L 268.40 221.00 L 264.20 223.10 L 257.40 225.20 L 250.00 226.00 L 242.60 225.20 L 235.80 223.10 L 231.60 221.00 L 227.70 218.40 L 224.20 215.30 L 221.10 211.80 L 218.50 207.90 L 216.40 203.70 L 214.30 196.90 L 213.50 189.50 L 214.30 182.10 L 216.40 175.30 L 218.50 171.10 L 221.10 167.20 L 224.20 163.70 L 227.70 160.60 L 231.60 158.00 L 235.80 155.90 L 242.60 153.80 L 250.00 153.00 L 257.40 153.80 L 264.20 155.90 L 268.40 158.00 L 272.30 160.60 L 275.80 163.70 L 278.90 167.20 L 281.50 171.10 L 283.60 175.30 L 285.70 182.10 L 286.50 189.50 Z" fill="url(#未命名的渐变_66)" fill-opacity="0.4" fill-rule="nonzero" group-id="4" node-id="301" stroke="none" target-height="73" target-width="73" target-x="213.5" target-y="153"></path></g><g node-id="321"><path d="M 282.00 102.00 L 281.70 106.40 L 280.90 110.50 L 279.50 114.50 L 277.60 118.20 L 275.30 121.60 L 272.60 124.60 L 269.60 127.30 L 266.20 129.60 L 262.50 131.50 L 258.50 132.90 L 254.40 133.70 L 250.00 134.00 L 245.60 133.70 L 241.50 132.90 L 237.50 131.50 L 233.80 129.60 L 230.40 127.30 L 227.40 124.60 L 224.70 121.60 L 222.40 118.20 L 220.50 114.50 L 219.10 110.50 L 218.30 106.40 L 218.00 102.00 L 218.30 97.60 L 219.10 93.50 L 220.50 89.50 L 222.40 85.80 L 224.70 82.40 L 227.40 79.40 L 230.40 76.70 L 233.80 74.40 L 237.50 72.50 L 241.50 71.10 L 245.60 70.30 L 250.00 70.00 L 254.40 70.30 L 258.50 71.10 L 262.50 72.50 L 266.20 74.40 L 269.60 76.70 L 272.60 79.40 L 275.30 82.40 L 277.60 85.80 L 279.50 89.50 L 280.90 93.50 L 281.70 97.60 L 282.00 102.00 Z" fill="url(#未命名的渐变_71)" fill-opacity="0.4" fill-rule="nonzero" group-id="5" node-id="306" stroke="none" target-height="64" target-width="64" target-x="218" target-y="70"></path></g><path d="M 157.00 109.50 L 156.30 108.80 L 153.70 107.80 L 152.70 105.20 L 152.00 104.50 L 151.30 105.20 L 150.30 107.80 L 147.20 109.10 L 147.20 109.90 L 147.70 110.20 L 150.30 111.20 L 151.30 113.80 L 152.00 114.50 L 152.70 113.80 L 153.70 111.20 L 156.30 110.20 L 157.00 109.50 Z" fill="#e2e4ed" fill-rule="nonzero" node-id="309" stroke="none" target-height="10" target-width="9.800003" target-x="147.2" target-y="104.5"></path><path d="M 198.00 129.50 L 196.70 128.80 L 196.00 127.50 L 195.30 128.80 L 194.00 129.50 L 195.30 130.20 L 196.00 131.50 L 196.70 130.20 L 198.00 129.50 Z" fill="url(#未命名的渐变_74)" fill-rule="nonzero" node-id="311" stroke="none" target-height="4" target-width="4" target-x="194" target-y="127.5"></path><path d="M 192.80 65.60 L 192.50 64.80 L 191.30 64.00 L 186.50 62.60 L 185.70 62.00 L 185.10 61.20 L 183.70 56.30 L 182.90 55.20 L 182.10 54.90 L 181.30 55.20 L 180.50 56.30 L 179.10 61.20 L 178.50 62.00 L 177.70 62.60 L 172.90 64.00 L 171.70 64.80 L 171.40 65.60 L 171.70 66.30 L 172.90 67.20 L 177.70 68.60 L 178.50 69.20 L 179.10 70.00 L 180.50 74.80 L 181.30 76.00 L 182.10 76.30 L 182.80 76.00 L 183.70 74.80 L 185.10 70.00 L 185.70 69.20 L 186.50 68.60 L 191.30 67.20 L 192.50 66.30 L 192.80 65.60 Z" fill="#e2e4ed" fill-rule="nonzero" node-id="313" stroke="none" target-height="21.400002" target-width="21.40001" target-x="171.4" target-y="54.9"></path><path d="M 301.00 152.00 L 300.60 151.60 L 298.70 150.80 L 298.00 149.00 L 297.50 148.50 L 297.10 148.90 L 296.30 150.80 L 294.10 151.70 L 294.40 152.40 L 296.30 153.20 L 297.00 155.00 L 297.50 155.50 L 297.90 155.10 L 298.70 153.20 L 300.60 152.40 L 301.00 152.00 Z" fill="#e2e4ed" fill-rule="nonzero" node-id="315" stroke="none" target-height="7" target-width="6.899994" target-x="294.1" target-y="148.5"></path></svg>