<?xml version="1.0" standalone="no"?><!DOCTYPE svg PUBLIC "-//W3C//DTD SVG 1.1//EN" "http://www.w3.org/Graphics/SVG/1.1/DTD/svg11.dtd"><svg t="1737986257790" class="icon" viewBox="0 0 1024 1024" version="1.1" xmlns="http://www.w3.org/2000/svg" p-id="4186" xmlns:xlink="http://www.w3.org/1999/xlink" width="200" height="200"><path d="M572.338 260.796c-32.956 0-59.684 26.73-59.684 59.686 0 32.954 26.728 59.66 59.684 59.66 32.956 0 59.683-26.706 59.683-59.66 0-32.956-26.728-59.686-59.683-59.686zM571.338 801.654c-1.637 0.5-3.037 0.905-6.29 1.83-1.74 0.495-3.481 0.964-6.335 1.716-16.912 4.458-27.007 21.782-22.549 38.695 4.459 16.908 21.782 27.006 38.695 22.548 3.22-0.85 5.287-1.407 7.515-2.042 3.649-1.036 5.31-1.52 7.473-2.18 16.726-5.111 26.142-22.813 21.031-39.54-5.11-16.723-22.813-26.14-39.54-21.027z" p-id="4187"></path><path d="M949.332 903.374c-8.61-8.603-35.243-35.225-109.928-109.892l-56.658-56.64c42.372-49.602 72.92-109.052 87.742-173.058 38.596-166.823-33.39-343.867-177.482-436.417C550.89 36.069 361.513 43.185 226.666 144.9 90.21 247.822 31.573 429.155 82.055 592.365c1.467 4.742 3.311 9.306 4.948 13.97 0.297 0.866 0.528 1.701 0.901 2.544 55.684 155.283 203.929 264.796 369.798 270.75 17.478 0.63 32.157-13.03 32.784-30.508s-13.033-32.157-30.512-32.784c-134.04-4.813-255.028-90.176-306.265-212.482l143.56-143.562L474.85 637.89c12.368 12.368 32.421 12.368 44.789 0l83.167-83.182 135.827 135.825c-22.723 27.635-49.497 52.002-79.854 71.5-14.715 9.454-18.983 29.045-9.53 43.76 9.451 14.715 29.043 18.984 43.758 9.53 15.824-10.164 30.553-21.738 44.732-33.92 13.248 13.243 30.194 30.186 56.887 56.872 74.713 74.691 101.328 101.3 109.952 109.91 12.376 12.363 32.427 12.348 44.786-0.025 12.358-12.376 12.344-32.426-0.03-44.786z m-324.137-415.85c-12.368-12.367-32.42-12.364-44.788 0.004l-83.165 83.182-177.576-177.597c-12.368-12.367-32.42-12.367-44.788-0.003L133.287 534.704c-23.204-126.883 27.115-260.492 131.52-339.234 113.673-85.75 274.162-91.782 393.969-14.813 121.582 78.092 182.572 228.091 150.007 368.845-7.122 30.756-18.76 60.204-33.911 87.7L625.195 487.526z" p-id="4188"></path></svg>