<svg xmlns="http://www.w3.org/2000/svg" version="1.1" viewBox="0.7553907632827759 1.2012500762939453 512.0946044921875 234.87860107421875" width="513.00" height="237.00">
<g stroke-width="2.00" fill="none" stroke-linecap="butt">
<path stroke="#1d4b6b" d="&#10;  M 180.97 98.74&#10;  Q 180.66 99.74 181.20 99.79"/>
<path stroke="#0d5f83" d="&#10;  M 184.19 127.25&#10;  Q 155.13 97.89 127.81 67.05&#10;  C 117.82 55.77 108.07 45.58 98.04 34.99&#10;  Q 85.02 21.25 73.55 2.26"/>
<path stroke="#1f4f75" d="&#10;  M 185.29 159.37&#10;  Q 165.04 141.10 155.25 131.99&#10;  Q 140.82 118.56 124.21 109.23"/>
<path stroke="#134b72" d="&#10;  M 98.68 66.51&#10;  Q 81.13 53.44 67.39 38.84&#10;  Q 55.64 26.36 48.73 9.59"/>
<path stroke="#244870" d="&#10;  M 61.83 100.74&#10;  Q 50.79 84.14 33.88 70.21&#10;  Q 21.54 60.05 7.47 53.32"/>
<path stroke="#455176" d="&#10;  M 185.24 182.48&#10;  Q 166.93 168.80 148.75 155.20&#10;  Q 137.22 146.57 124.22 140.48"/>
<path stroke="#4b5376" d="&#10;  M 61.75 139.75&#10;  Q 33.56 112.61 0.90 91.85"/>
<path stroke="#5f5878" d="&#10;  M 185.26 196.34&#10;  Q 164.64 181.81 151.47 171.83&#10;  Q 138.53 162.03 124.21 156.43"/>
<path stroke="#434060" d="&#10;  M 124.15 153.73&#10;  L 124.14 151.96"/>
<path stroke="#715b78" d="&#10;  M 61.70 167.75&#10;  Q 33.06 140.98 0.98 118.46"/>
<path stroke="#715b78" d="&#10;  M 183.38 216.45&#10;  Q 167.54 198.85 148.05 185.10&#10;  Q 136.97 177.28 124.20 172.50"/>
<path stroke="#975e72" d="&#10;  M 61.55 188.26&#10;  Q 33.38 161.18 1.01 138.50"/>
<path stroke="#925d74" d="&#10;  M 171.23 231.28&#10;  Q 153.00 205.80 124.81 192.09&#10;  Q 124.36 191.87 124.34 191.37&#10;  L 124.12 183.78"/>
<path stroke="#55435f" d="&#10;  M 124.12 180.29&#10;  L 124.14 177.29"/>
<path stroke="#bd6069" d="&#10;  M 60.35 217.28&#10;  Q 48.94 208.31 30.78 192.96&#10;  Q 17.75 181.95 1.03 171.49"/>
<path stroke="#d7665e" d="&#10;  M 52.60 227.71&#10;  C 35.75 212.41 19.91 198.82 1.07 186.84"/>
<path stroke="#0b86a6" d="&#10;  M 290.83 40.96&#10;  C 272.60 39.42 255.96 35.29 238.33 29.75&#10;  Q 209.06 20.56 180.45 9.76&#10;  Q 179.89 9.55 180.42 9.28&#10;  L 190.53 4.30"/>
<path stroke="#0d6689" d="&#10;  M 305.54 71.78&#10;  L 305.29 74.27&#10;  Q 305.24 74.76 304.76 74.67&#10;  C 282.06 70.50 259.91 64.45 237.55 58.83&#10;  Q 230.59 57.08 211.06 53.51"/>
<path stroke="#1d5271" d="&#10;  M 211.06 53.51&#10;  Q 203.14 42.75 193.07 34.18&#10;  Q 179.50 22.61 161.72 18.08"/>
<path stroke="#1e3e5f" d="&#10;  M 211.06 53.51&#10;  L 222.35 70.24"/>
<path stroke="#1f4f75" d="&#10;  M 307.98 82.21&#10;  L 308.30 91.27&#10;  Q 308.31 91.74 307.86 91.62&#10;  Q 271.64 82.39 234.96 74.64"/>
<path stroke="#2f3b5d" d="&#10;  M 309.26 111.02&#10;  L 309.25 113.02"/>
<path stroke="#455176" d="&#10;  M 309.25 113.02&#10;  Q 280.48 99.59 249.13 95.40"/>
<path stroke="#434060" d="&#10;  M 309.25 113.02&#10;  L 309.35 115.48"/>
<path stroke="#434060" d="&#10;  M 309.37 121.53&#10;  L 309.40 124.73"/>
<path stroke="#6b5978" d="&#10;  M 309.79 129.36&#10;  Q 300.57 124.18 289.84 120.34&#10;  Q 269.61 113.11 249.34 109.97"/>
<path stroke="#925d74" d="&#10;  M 312.95 141.99&#10;  C 291.13 134.39 271.19 127.79 249.33 122.56"/>
<path stroke="#b85f6b" d="&#10;  M 319.23 153.48&#10;  C 295.61 147.45 272.65 139.58 249.34 132.53"/>
<path stroke="#b85f6b" d="&#10;  M 372.17 175.95&#10;  L 416.11 198.01"/>
<path stroke="#d7665e" d="&#10;  M 403.71 212.21&#10;  Q 369.01 193.60 331.75 181.39&#10;  Q 295.56 169.53 274.56 163.23&#10;  Q 267.31 161.06 251.69 157.29"/>
<path stroke="#e97850" d="&#10;  M 388.52 223.58&#10;  Q 357.94 209.85 336.39 201.96&#10;  Q 311.99 193.02 279.36 183.77&#10;  C 272.41 181.80 265.42 180.29 258.35 178.76"/>
<path stroke="#925d74" d="&#10;  M 424.61 183.56&#10;  L 398.71 169.58"/>
<path stroke="#1e3e5f" d="&#10;  M 277.65 6.17&#10;  C 279.40 7.15 280.92 8.21 282.81 8.80&#10;  Q 287.08 10.14 290.31 11.93&#10;  C 301.08 17.93 310.70 26.89 319.10 36.00&#10;  Q 330.41 48.27 343.59 60.04&#10;  C 344.98 61.27 348.32 63.20 349.68 65.28&#10;  Q 349.76 65.41 350.07 65.47&#10;  A 0.36 0.35 9.2 0 1 350.36 65.87&#10;  L 350.29 66.34"/>
<path stroke="#0d5f83" d="&#10;  M 320.50 6.24&#10;  L 308.66 7.57&#10;  Q 308.27 7.62 308.64 7.76&#10;  C 335.02 18.28 358.58 25.16 389.43 34.05&#10;  Q 430.86 46.00 469.41 52.46&#10;  Q 486.97 55.40 505.11 56.70"/>
<path stroke="#0b86a6" d="&#10;  M 442.84 6.22&#10;  Q 454.88 12.15 467.64 15.65&#10;  C 480.61 19.22 494.31 23.43 507.78 19.49"/>
<path stroke="#0c7395" d="&#10;  M 510.56 24.16&#10;  Q 511.75 32.62 510.80 40.82&#10;  Q 510.74 41.31 510.25 41.24&#10;  Q 445.60 31.48 383.15 12.15&#10;  Q 377.32 10.34 370.19 6.22"/>
</g>
<path fill="#0c6c8f" d="&#10;  M 180.97 98.74&#10;  Q 180.66 99.74 181.20 99.79&#10;  L 184.19 127.25&#10;  Q 155.13 97.89 127.81 67.05&#10;  C 117.82 55.77 108.07 45.58 98.04 34.99&#10;  Q 85.02 21.25 73.55 2.26&#10;  Q 98.94 -1.59 120.91 8.56&#10;  Q 150.71 22.34 165.92 49.36&#10;  Q 178.12 71.05 180.97 98.74&#10;  Z"/>
<path fill="#0a92b1" d="&#10;  M 290.83 40.96&#10;  C 272.60 39.42 255.96 35.29 238.33 29.75&#10;  Q 209.06 20.56 180.45 9.76&#10;  Q 179.89 9.55 180.42 9.28&#10;  L 190.53 4.30&#10;  Q 214.31 -1.63 237.14 3.84&#10;  Q 244.39 5.58 254.09 9.85&#10;  C 268.41 16.16 281.81 28.59 290.83 40.96&#10;  Z"/>
<path fill="#0e5277" d="&#10;  M 73.55 2.26&#10;  Q 85.02 21.25 98.04 34.99&#10;  C 108.07 45.58 117.82 55.77 127.81 67.05&#10;  Q 155.13 97.89 184.19 127.25&#10;  Q 185.50 143.13 185.29 159.37&#10;  Q 165.04 141.10 155.25 131.99&#10;  Q 140.82 118.56 124.21 109.23&#10;  C 124.14 99.24 125.61 89.32 119.47 80.19&#10;  Q 112.14 69.28 98.68 66.51&#10;  Q 81.13 53.44 67.39 38.84&#10;  Q 55.64 26.36 48.73 9.59&#10;  Q 60.46 3.89 73.55 2.26&#10;  Z"/>
<path fill="#0c799a" d="&#10;  M 190.53 4.30&#10;  L 180.42 9.28&#10;  Q 179.89 9.55 180.45 9.76&#10;  Q 209.06 20.56 238.33 29.75&#10;  C 255.96 35.29 272.60 39.42 290.83 40.96&#10;  Q 300.74 55.05 305.54 71.78&#10;  L 305.29 74.27&#10;  Q 305.24 74.76 304.76 74.67&#10;  C 282.06 70.50 259.91 64.45 237.55 58.83&#10;  Q 230.59 57.08 211.06 53.51&#10;  Q 203.14 42.75 193.07 34.18&#10;  Q 179.50 22.61 161.72 18.08&#10;  Q 175.35 8.81 190.53 4.30&#10;  Z"/>
<path fill="#2d2a47" d="&#10;  M 277.65 6.17&#10;  C 279.40 7.15 280.92 8.21 282.81 8.80&#10;  Q 287.08 10.14 290.31 11.93&#10;  C 301.08 17.93 310.70 26.89 319.10 36.00&#10;  Q 330.41 48.27 343.59 60.04&#10;  C 344.98 61.27 348.32 63.20 349.68 65.28&#10;  Q 349.76 65.41 350.07 65.47&#10;  A 0.36 0.35 9.2 0 1 350.36 65.87&#10;  L 350.29 66.34&#10;  L 317.47 66.22&#10;  A 1.79 1.78 -9.0 0 1 315.77 64.99&#10;  C 311.81 53.08 306.56 42.18 298.82 32.23&#10;  Q 287.79 18.06 274.63 8.13&#10;  Q 271.84 6.03 275.33 6.11&#10;  L 277.65 6.17&#10;  Z"/>
<path fill="#0c799a" d="&#10;  M 442.84 6.22&#10;  Q 454.88 12.15 467.64 15.65&#10;  C 480.61 19.22 494.31 23.43 507.78 19.49&#10;  L 510.56 24.16&#10;  Q 511.75 32.62 510.80 40.82&#10;  Q 510.74 41.31 510.25 41.24&#10;  Q 445.60 31.48 383.15 12.15&#10;  Q 377.32 10.34 370.19 6.22&#10;  L 442.84 6.22&#10;  Z"/>
<path fill="#0a92b1" d="&#10;  M 507.78 19.49&#10;  C 494.31 23.43 480.61 19.22 467.64 15.65&#10;  Q 454.88 12.15 442.84 6.22&#10;  Q 471.24 5.95 482.75 6.29&#10;  Q 498.18 6.74 507.78 19.49&#10;  Z"/>
<path fill="#0e5277" d="&#10;  M 320.50 6.24&#10;  L 308.66 7.57&#10;  Q 308.27 7.62 308.64 7.76&#10;  C 335.02 18.28 358.58 25.16 389.43 34.05&#10;  Q 430.86 46.00 469.41 52.46&#10;  Q 486.97 55.40 505.11 56.70&#10;  Q 496.00 66.14 484.25 66.26&#10;  Q 455.78 66.55 350.29 66.34&#10;  L 350.36 65.87&#10;  A 0.36 0.35 9.2 0 0 350.07 65.47&#10;  Q 349.76 65.41 349.68 65.28&#10;  C 348.32 63.20 344.98 61.27 343.59 60.04&#10;  Q 330.41 48.27 319.10 36.00&#10;  C 310.70 26.89 301.08 17.93 290.31 11.93&#10;  Q 287.08 10.14 282.81 8.80&#10;  C 280.92 8.21 279.40 7.15 277.65 6.17&#10;  L 320.50 6.24&#10;  Z"/>
<path fill="#0c6c8f" d="&#10;  M 370.19 6.22&#10;  Q 377.32 10.34 383.15 12.15&#10;  Q 445.60 31.48 510.25 41.24&#10;  Q 510.74 41.31 510.80 40.82&#10;  Q 511.75 32.62 510.56 24.16&#10;  Q 517.06 42.50 505.11 56.70&#10;  Q 486.97 55.40 469.41 52.46&#10;  Q 430.86 46.00 389.43 34.05&#10;  C 358.58 25.16 335.02 18.28 308.64 7.76&#10;  Q 308.27 7.62 308.66 7.57&#10;  L 320.50 6.24&#10;  L 370.19 6.22&#10;  Z"/>
<path fill="#17436c" d="&#10;  M 48.73 9.59&#10;  Q 55.64 26.36 67.39 38.84&#10;  Q 81.13 53.44 98.68 66.51&#10;  Q 80.29 63.96 68.73 77.45&#10;  Q 62.78 84.39 61.87 92.88&#10;  Q 61.43 96.98 61.83 100.74&#10;  Q 50.79 84.14 33.88 70.21&#10;  Q 21.54 60.05 7.47 53.32&#10;  Q 20.10 23.66 48.73 9.59&#10;  Z"/>
<path fill="#2d2a47" d="&#10;  M 161.72 18.08&#10;  Q 179.50 22.61 193.07 34.18&#10;  Q 203.14 42.75 211.06 53.51&#10;  L 222.35 70.24&#10;  Q 205.53 68.80 193.53 81.54&#10;  Q 192.41 82.73 191.71 83.76&#10;  A 0.76 0.76 0.0 0 1 190.33 83.48&#10;  C 188.32 73.47 186.29 65.52 182.31 56.57&#10;  Q 173.83 37.55 159.03 21.68&#10;  A 1.16 1.15 -40.1 0 1 159.18 19.96&#10;  L 161.72 18.08&#10;  Z"/>
<path fill="#304c73" d="&#10;  M 61.83 100.74&#10;  L 61.75 139.75&#10;  Q 33.56 112.61 0.90 91.85&#10;  Q -0.23 71.46 7.47 53.32&#10;  Q 21.54 60.05 33.88 70.21&#10;  Q 50.79 84.14 61.83 100.74&#10;  Z"/>
<path fill="#0e5277" d="&#10;  M 305.54 71.78&#10;  L 307.98 82.21&#10;  L 308.30 91.27&#10;  Q 308.31 91.74 307.86 91.62&#10;  Q 271.64 82.39 234.96 74.64&#10;  Q 229.43 71.03 222.35 70.24&#10;  L 211.06 53.51&#10;  Q 230.59 57.08 237.55 58.83&#10;  C 259.91 64.45 282.06 70.50 304.76 74.67&#10;  Q 305.24 74.76 305.29 74.27&#10;  L 305.54 71.78&#10;  Z"/>
<path fill="#304c73" d="&#10;  M 307.98 82.21&#10;  Q 310.31 96.42 309.26 111.02&#10;  L 309.25 113.02&#10;  Q 280.48 99.59 249.13 95.40&#10;  Q 246.96 81.88 234.96 74.64&#10;  Q 271.64 82.39 307.86 91.62&#10;  Q 308.31 91.74 308.30 91.27&#10;  L 307.98 82.21&#10;  Z"/>
<path fill="#2d2a47" d="&#10;  M 432.26 79.26&#10;  Q 432.28 79.66 432.21 92.39&#10;  Q 432.17 100.61 431.36 105.48&#10;  C 428.68 121.59 421.94 137.55 409.65 148.13&#10;  Q 393.70 161.85 371.71 163.45&#10;  A 1.46 1.46 0.0 0 1 370.14 161.99&#10;  L 370.14 79.63&#10;  A 1.12 1.12 0.0 0 1 371.26 78.51&#10;  L 431.67 78.46&#10;  Q 432.24 78.46 432.26 79.26&#10;  Z"/>
<path fill="#655a78" d="&#10;  M 61.75 139.75&#10;  L 61.70 167.75&#10;  Q 33.06 140.98 0.98 118.46&#10;  L 0.90 91.85&#10;  Q 33.56 112.61 61.75 139.75&#10;  Z"/>
<path fill="#595678" d="&#10;  M 309.25 113.02&#10;  L 309.35 115.48&#10;  L 309.37 121.53&#10;  L 309.40 124.73&#10;  L 309.79 129.36&#10;  Q 300.57 124.18 289.84 120.34&#10;  Q 269.61 113.11 249.34 109.97&#10;  L 249.13 95.40&#10;  Q 280.48 99.59 309.25 113.02&#10;  Z"/>
<path fill="#2d2a47" d="&#10;  M 181.20 99.79&#10;  Q 180.66 99.74 180.97 98.74&#10;  Q 181.25 99.16 181.20 99.79&#10;  Z"/>
<path fill="#304c73" d="&#10;  M 185.29 159.37&#10;  L 185.24 182.48&#10;  Q 166.93 168.80 148.75 155.20&#10;  Q 137.22 146.57 124.22 140.48&#10;  L 124.21 109.23&#10;  Q 140.82 118.56 155.25 131.99&#10;  Q 165.04 141.10 185.29 159.37&#10;  Z"/>
<path fill="#7d5c77" d="&#10;  M 309.79 129.36&#10;  Q 310.61 135.76 312.95 141.99&#10;  C 291.13 134.39 271.19 127.79 249.33 122.56&#10;  L 249.34 109.97&#10;  Q 269.61 113.11 289.84 120.34&#10;  Q 300.57 124.18 309.79 129.36&#10;  Z"/>
<path fill="#2d2a47" d="&#10;  M 309.26 111.02&#10;  L 309.35 115.48&#10;  L 309.25 113.02&#10;  L 309.26 111.02&#10;  Z"/>
<path fill="#7d5c77" d="&#10;  M 61.70 167.75&#10;  L 61.55 188.26&#10;  Q 33.38 161.18 1.01 138.50&#10;  L 0.98 118.46&#10;  Q 33.06 140.98 61.70 167.75&#10;  Z"/>
<path fill="#2d2a47" d="&#10;  M 309.40 124.73&#10;  L 309.37 121.53&#10;  L 309.40 124.73&#10;  Z"/>
<path fill="#a65e70" d="&#10;  M 312.95 141.99&#10;  Q 315.38 148.06 319.23 153.48&#10;  C 295.61 147.45 272.65 139.58 249.34 132.53&#10;  L 249.33 122.56&#10;  C 271.19 127.79 291.13 134.39 312.95 141.99&#10;  Z"/>
<path fill="#c96065" d="&#10;  M 319.23 153.48&#10;  Q 323.15 158.78 327.79 162.46&#10;  Q 347.17 177.83 372.17 175.95&#10;  L 416.11 198.01&#10;  Q 410.74 205.96 403.71 212.21&#10;  Q 369.01 193.60 331.75 181.39&#10;  Q 295.56 169.53 274.56 163.23&#10;  Q 267.31 161.06 251.69 157.29&#10;  Q 249.29 145.04 249.34 132.53&#10;  C 272.65 139.58 295.61 147.45 319.23 153.48&#10;  Z"/>
<path fill="#595678" d="&#10;  M 185.24 182.48&#10;  L 185.26 196.34&#10;  Q 164.64 181.81 151.47 171.83&#10;  Q 138.53 162.03 124.21 156.43&#10;  L 124.15 153.73&#10;  L 124.14 151.96&#10;  L 124.22 140.48&#10;  Q 137.22 146.57 148.75 155.20&#10;  Q 166.93 168.80 185.24 182.48&#10;  Z"/>
<path fill="#b15f6d" d="&#10;  M 61.55 188.26&#10;  Q 62.83 203.08 60.35 217.28&#10;  Q 48.94 208.31 30.78 192.96&#10;  Q 17.75 181.95 1.03 171.49&#10;  L 1.01 138.50&#10;  Q 33.38 161.18 61.55 188.26&#10;  Z"/>
<path fill="#7d5c77" d="&#10;  M 424.61 183.56&#10;  L 398.71 169.58&#10;  Q 417.32 161.72 429.89 146.10&#10;  A 0.67 0.67 0.0 0 1 431.07 146.41&#10;  C 433.09 158.32 429.69 172.75 424.61 183.56&#10;  Z"/>
<path fill="#2d2a47" d="&#10;  M 124.14 151.96&#10;  L 124.15 153.73&#10;  L 124.14 151.96&#10;  Z"/>
<path fill="#655a78" d="&#10;  M 185.26 196.34&#10;  C 185.41 203.08 185.82 210.03 183.38 216.45&#10;  Q 167.54 198.85 148.05 185.10&#10;  Q 136.97 177.28 124.20 172.50&#10;  L 124.21 156.43&#10;  Q 138.53 162.03 151.47 171.83&#10;  Q 164.64 181.81 185.26 196.34&#10;  Z"/>
<path fill="#e46c57" d="&#10;  M 403.71 212.21&#10;  Q 396.72 218.72 388.52 223.58&#10;  Q 357.94 209.85 336.39 201.96&#10;  Q 311.99 193.02 279.36 183.77&#10;  C 272.41 181.80 265.42 180.29 258.35 178.76&#10;  Q 254.13 168.50 251.69 157.29&#10;  Q 267.31 161.06 274.56 163.23&#10;  Q 295.56 169.53 331.75 181.39&#10;  Q 369.01 193.60 403.71 212.21&#10;  Z"/>
<path fill="#a65e70" d="&#10;  M 398.71 169.58&#10;  L 424.61 183.56&#10;  Q 420.94 191.22 416.11 198.01&#10;  L 372.17 175.95&#10;  Q 386.12 174.86 398.71 169.58&#10;  Z"/>
<path fill="#7d5c77" d="&#10;  M 183.38 216.45&#10;  Q 179.78 226.15 171.23 231.28&#10;  Q 153.00 205.80 124.81 192.09&#10;  Q 124.36 191.87 124.34 191.37&#10;  L 124.12 183.78&#10;  L 124.12 180.29&#10;  L 124.14 177.29&#10;  L 124.20 172.50&#10;  Q 136.97 177.28 148.05 185.10&#10;  Q 167.54 198.85 183.38 216.45&#10;  Z"/>
<path fill="#c96065" d="&#10;  M 60.35 217.28&#10;  Q 57.38 223.14 52.60 227.71&#10;  C 35.75 212.41 19.91 198.82 1.07 186.84&#10;  L 1.03 171.49&#10;  Q 17.75 181.95 30.78 192.96&#10;  Q 48.94 208.31 60.35 217.28&#10;  Z"/>
<path fill="#ee8448" d="&#10;  M 388.52 223.58&#10;  C 367.45 235.56 342.63 239.20 319.28 232.67&#10;  C 307.68 229.43 295.78 223.28 286.38 215.62&#10;  Q 268.23 200.81 258.35 178.76&#10;  C 265.42 180.29 272.41 181.80 279.36 183.77&#10;  Q 311.99 193.02 336.39 201.96&#10;  Q 357.94 209.85 388.52 223.58&#10;  Z"/>
<path fill="#2d2a47" d="&#10;  M 124.14 177.29&#10;  L 124.12 180.29&#10;  L 124.14 177.29&#10;  Z"/>
<path fill="#a65e70" d="&#10;  M 171.23 231.28&#10;  Q 165.78 234.88 159.17 235.65&#10;  Q 139.92 237.91 129.00 223.24&#10;  Q 124.55 217.25 124.34 208.50&#10;  Q 124.04 196.15 124.12 183.78&#10;  L 124.34 191.37&#10;  Q 124.36 191.87 124.81 192.09&#10;  Q 153.00 205.80 171.23 231.28&#10;  Z"/>
<path fill="#e46c57" d="&#10;  M 52.60 227.71&#10;  Q 39.52 239.34 23.20 234.81&#10;  Q 7.84 230.55 2.54 215.72&#10;  Q 1.17 211.87 1.06 206.10&#10;  Q 0.89 196.42 1.07 186.84&#10;  C 19.91 198.82 35.75 212.41 52.60 227.71&#10;  Z"/>
</svg>